<svg xmlns="http://www.w3.org/2000/svg" xmlns:xlink="http://www.w3.org/1999/xlink" width="486.402" height="286" viewBox="0 0 486.402 286">
  <defs>
    <clipPath id="clip-path">
      <path id="Path_18073" data-name="Path 18073" d="M149.371,1752.5a19.032,19.032,0,1,0,19.032,19.032A19.031,19.031,0,0,0,149.371,1752.5Zm0,29.114a10.082,10.082,0,1,1,10.082-10.082A10.082,10.082,0,0,1,149.371,1781.611Z" transform="translate(-130.339 -1752.497)" fill="none"/>
    </clipPath>
  </defs>
  <g id="Group_15094" data-name="Group 15094" transform="translate(-116.498 -1705.938)">
    <g id="Group_15084" data-name="Group 15084" transform="translate(119.438 1705.938)">
      <path id="Path_18047" data-name="Path 18047" d="M173.771,1738.38c68.993-25.613,139.116-2.969,186.673,46.352s147.366-34.042,200.3,15.2c36.124,33.6,19.578,120-29.955,157.421-67.326,50.863-318.147,52.39-359.763,34.937-71.115-29.826-.454-85.057-33.65-138C98.214,1791.824,143.282,1749.7,173.771,1738.38Z" transform="translate(-122.121 -1716.342)" fill="#e7f3fe"/>
      <g id="Group_15063" data-name="Group 15063" transform="translate(47.725 105.576)">
        <path id="Path_18048" data-name="Path 18048" d="M343.177,1978.973a65.744,65.744,0,0,0,.41-7.308c0-1.3-.043-2.6-.118-3.883l-12.076-3.907a53.086,53.086,0,0,0-4.276-14.468l8.007-9.853a65.239,65.239,0,0,0-6.343-9.22l-12.077,3.941a53.649,53.649,0,0,0-11.956-9.19l.687-12.689a64.618,64.618,0,0,0-10.543-3.736l-7.458,10.291a53.74,53.74,0,0,0-15.076-.4l-6.9-10.672a64.593,64.593,0,0,0-10.727,3.17l.016,12.708a53.553,53.553,0,0,0-12.425,8.547l-11.848-4.572a65.366,65.366,0,0,0-6.823,8.872l7.477,10.264a53.087,53.087,0,0,0-5.041,14.221l-12.264,3.263a65.758,65.758,0,0,0-.41,7.308c0,1.3.042,2.6.118,3.882l12.075,3.907a53.055,53.055,0,0,0,4.276,14.468l-8.007,9.853a65.165,65.165,0,0,0,6.342,9.22l12.077-3.94a53.684,53.684,0,0,0,11.956,9.189l-.687,12.689a64.6,64.6,0,0,0,10.543,3.736l7.457-10.291a53.7,53.7,0,0,0,15.076.395l6.9,10.672a64.5,64.5,0,0,0,10.727-3.17l-.016-12.708a53.573,53.573,0,0,0,12.426-8.547l11.848,4.571a65.338,65.338,0,0,0,6.823-8.871l-7.477-10.265a53.083,53.083,0,0,0,5.041-14.22ZM278.5,1997.194a25.529,25.529,0,1,1,25.529-25.529A25.529,25.529,0,0,1,278.5,1997.194Z" transform="translate(-213.41 -1907.884)" fill="#9ec8ff"/>
        <g id="Group_15060" data-name="Group 15060" transform="translate(98.53 48.044)">
          <path id="Path_18049" data-name="Path 18049" d="M403.256,2045.059a1.377,1.377,0,0,1-1.058-2.258,42.77,42.77,0,0,0,7.535-41.191,1.378,1.378,0,1,1,2.605-.9,45.521,45.521,0,0,1-8.022,43.85A1.376,1.376,0,0,1,403.256,2045.059Z" transform="translate(-401.88 -1999.783)" fill="#fff"/>
        </g>
        <g id="Group_15061" data-name="Group 15061" transform="translate(79.661 20.961)">
          <path id="Path_18050" data-name="Path 18050" d="M382.337,1960.083a1.373,1.373,0,0,1-.944-.374,42.443,42.443,0,0,0-14.7-9.056,1.378,1.378,0,1,1,.939-2.59,45.18,45.18,0,0,1,15.647,9.64,1.378,1.378,0,0,1-.945,2.381Z" transform="translate(-365.787 -1947.979)" fill="#fff"/>
        </g>
        <g id="Group_15062" data-name="Group 15062" transform="translate(53.809 18.332)">
          <path id="Path_18051" data-name="Path 18051" d="M317.713,1947.043a1.378,1.378,0,0,1-.336-2.714,45.635,45.635,0,0,1,11.157-1.38,1.378,1.378,0,0,1,0,2.755,42.867,42.867,0,0,0-10.483,1.3A1.373,1.373,0,0,1,317.713,1947.043Z" transform="translate(-316.336 -1942.949)" fill="#fff"/>
        </g>
      </g>
      <path id="Path_18052" data-name="Path 18052" d="M573.9,2201.641c-34.536-1.688-152.021,1.172-187.751,2.287s-77.206-1.471-98.75-5.274-146.077.323-140.426,10.55,55.486,4.574,112,8.684,183.611-.514,212.28,0,54.959-1.027,91.905-3.083S593.916,2202.619,573.9,2201.641Z" transform="translate(-133.89 -1940.4)" fill="#cce2ff"/>
      <g id="Group_15067" data-name="Group 15067" transform="translate(299.099)">
        <path id="Path_18053" data-name="Path 18053" d="M760.246,1742.1a33.434,33.434,0,0,0,.209-3.718c0-.663-.022-1.321-.061-1.975l-6.142-1.987a26.984,26.984,0,0,0-2.175-7.36l4.073-5.011a33.144,33.144,0,0,0-3.227-4.69l-6.143,2a27.3,27.3,0,0,0-6.082-4.674l.35-6.454a32.815,32.815,0,0,0-5.363-1.9l-3.793,5.235a27.29,27.29,0,0,0-7.669-.2l-3.512-5.428a32.849,32.849,0,0,0-5.456,1.612l.008,6.464a27.246,27.246,0,0,0-6.32,4.348l-6.027-2.326a33.225,33.225,0,0,0-3.471,4.512l3.8,5.222a27.01,27.01,0,0,0-2.564,7.233l-6.238,1.66a33.445,33.445,0,0,0-.209,3.717c0,.663.021,1.322.06,1.975l6.142,1.987a27.008,27.008,0,0,0,2.175,7.36l-4.073,5.011a33.231,33.231,0,0,0,3.227,4.69l6.143-2a27.3,27.3,0,0,0,6.082,4.674l-.35,6.455a32.853,32.853,0,0,0,5.363,1.9l3.793-5.235a27.337,27.337,0,0,0,7.668.2l3.512,5.428a32.841,32.841,0,0,0,5.456-1.612l-.008-6.464a27.235,27.235,0,0,0,6.321-4.348l6.027,2.325a33.19,33.19,0,0,0,3.471-4.513l-3.8-5.221a26.991,26.991,0,0,0,2.564-7.233Zm-32.9,9.269a12.986,12.986,0,1,1,12.986-12.986A12.986,12.986,0,0,1,727.347,1751.367Z" transform="translate(-694.239 -1705.938)" fill="#9ec8ff" opacity="0.5"/>
        <g id="Group_15064" data-name="Group 15064" transform="translate(50.15 24.47)">
          <path id="Path_18054" data-name="Path 18054" d="M790.836,1775.711a.669.669,0,0,1-.514-1.1,21.789,21.789,0,0,0,3.838-20.983.669.669,0,1,1,1.265-.436,23.123,23.123,0,0,1-4.075,22.274A.668.668,0,0,1,790.836,1775.711Z" transform="translate(-790.167 -1752.744)" fill="#fff"/>
        </g>
        <g id="Group_15065" data-name="Group 15065" transform="translate(40.552 10.694)">
          <path id="Path_18055" data-name="Path 18055" d="M780.195,1732.486a.665.665,0,0,1-.458-.182,21.638,21.638,0,0,0-7.487-4.613.669.669,0,0,1,.456-1.258,22.948,22.948,0,0,1,7.948,4.9.669.669,0,0,1-.459,1.156Z" transform="translate(-771.808 -1726.393)" fill="#fff"/>
        </g>
        <g id="Group_15066" data-name="Group 15066" transform="translate(27.402 9.356)">
          <path id="Path_18056" data-name="Path 18056" d="M747.323,1725.853a.669.669,0,0,1-.163-1.318,23.191,23.191,0,0,1,5.668-.7.669.669,0,0,1,0,1.338,21.838,21.838,0,0,0-5.34.66A.678.678,0,0,1,747.323,1725.853Z" transform="translate(-746.654 -1723.834)" fill="#fff"/>
        </g>
      </g>
      <rect id="Rectangle_3935" data-name="Rectangle 3935" width="206.922" height="124.288" transform="translate(105.26 0.094)" fill="#9ec8ff" opacity="0.5"/>
      <rect id="Rectangle_3936" data-name="Rectangle 3936" width="194.674" height="114.099" transform="translate(115.341 3.127)" fill="#fff"/>
      <g id="Group_15083" data-name="Group 15083" transform="translate(4.296 13.416)">
        <g id="Group_15070" data-name="Group 15070" transform="translate(180.841)">
          <path id="Path_18057" data-name="Path 18057" d="M520.948,1753.949a22.348,22.348,0,1,0-38.78,15.145,10.138,10.138,0,0,1,2.685,6.872v10.018a11.817,11.817,0,0,0,11.783,11.783h3.928a11.818,11.818,0,0,0,11.784-11.783v-10.017a10.246,10.246,0,0,1,2.726-6.918A22.265,22.265,0,0,0,520.948,1753.949Z" transform="translate(-476.252 -1731.6)" fill="#f5dc95"/>
          <path id="Path_18058" data-name="Path 18058" d="M520.676,1759.667a19.226,19.226,0,1,0-33.363,13.029,8.721,8.721,0,0,1,2.31,5.912v8.618a10.167,10.167,0,0,0,10.137,10.137h3.379a10.167,10.167,0,0,0,10.137-10.137v-8.617a8.814,8.814,0,0,1,2.345-5.951A19.154,19.154,0,0,0,520.676,1759.667Z" transform="translate(-479.102 -1735.819)" fill="#fff" opacity="0.5"/>
          <g id="Group_15068" data-name="Group 15068" transform="translate(9.572 28.21)">
            <path id="Path_18059" data-name="Path 18059" d="M510.64,1805.734h-7.359a.669.669,0,0,1-.666-.608c-.013-.143-1.386-14.35-7.739-18.328a.669.669,0,0,1,.71-1.134c6.2,3.881,7.958,15.851,8.3,18.731h6.051a21.925,21.925,0,0,1,.6-5.364,29.465,29.465,0,0,1,7.2-13.253.669.669,0,1,1,.985.905c-8.353,9.093-7.424,18.214-7.413,18.306a.67.67,0,0,1-.665.744Z" transform="translate(-494.562 -1785.561)" fill="#94bdf2"/>
          </g>
          <g id="Group_15069" data-name="Group 15069" transform="translate(8.745 21.359)">
            <path id="Path_18060" data-name="Path 18060" d="M515.395,1781.459c-2.484,0-5.872-1.765-9.44-3.678-4.607,2.454-8.911,4.655-11.32,3.194-1.132-.686-1.673-2.029-1.655-4.106.018-1.955.578-3.273,1.666-3.917,2.413-1.429,6.726.851,11.311,3.312,4.676-2.494,9.079-4.816,11.484-3.352,1.08.657,1.614,1.994,1.589,3.972-.027,2.058-.618,3.443-1.759,4.115A3.63,3.63,0,0,1,515.395,1781.459Zm-8.018-4.436c3.674,1.953,7.518,3.823,9.215,2.823.71-.419,1.08-1.421,1.1-2.979.019-1.472-.3-2.417-.947-2.812C515.105,1773.056,511.122,1775.037,507.377,1777.023Zm-10.923-3.181a2.186,2.186,0,0,0-1.126.261c-.657.389-1,1.324-1.01,2.778-.014,1.543.326,2.536,1.01,2.95,1.65,1,5.507-.859,9.206-2.812C501.545,1775.423,498.406,1773.841,496.455,1773.841Z" transform="translate(-492.98 -1772.456)" fill="#94bdf2"/>
          </g>
          <rect id="Rectangle_3937" data-name="Rectangle 3937" width="9.768" height="5.887" rx="2.944" transform="translate(17.689 63.458)" fill="#94bdf2"/>
          <path id="Path_18061" data-name="Path 18061" d="M491.46,1821.843v7.086a12.377,12.377,0,0,0,12.34,12.341h4.114a12.376,12.376,0,0,0,12.34-12.341v-7.086Z" transform="translate(-483.51 -1774.665)" fill="#94bdf2"/>
          <rect id="Rectangle_3938" data-name="Rectangle 3938" width="31.399" height="3.39" rx="1.695" transform="translate(6.829 46.019)" fill="#9ec8ff"/>
          <path id="Rectangle_3939" data-name="Rectangle 3939" d="M1.695,0H29.7A1.695,1.695,0,0,1,31.4,1.695v0A1.695,1.695,0,0,1,29.7,3.39H1.695A1.695,1.695,0,0,1,0,1.695v0A1.695,1.695,0,0,1,1.695,0Z" transform="matrix(0.992, -0.123, 0.123, 0.992, 6.74, 52.238)" fill="#9ec8ff"/>
          <path id="Rectangle_3940" data-name="Rectangle 3940" d="M1.695,0H29.7A1.695,1.695,0,0,1,31.4,1.695v0A1.695,1.695,0,0,1,29.7,3.39H1.7A1.7,1.7,0,0,1,0,1.695v0A1.695,1.695,0,0,1,1.695,0Z" transform="matrix(0.992, -0.123, 0.123, 0.992, 6.74, 57.134)" fill="#9ec8ff"/>
          <rect id="Rectangle_3941" data-name="Rectangle 3941" width="26.424" height="3.39" rx="1.695" transform="matrix(0.992, -0.123, 0.123, 0.992, 9.82, 61.78)" fill="#9ec8ff"/>
        </g>
        <g id="Group_15072" data-name="Group 15072" transform="translate(402.55 51.317)">
          <path id="Path_18062" data-name="Path 18062" d="M915.356,1848.8h15.018a15.018,15.018,0,1,1-15.018-15.017Z" transform="translate(-900.338 -1831.679)" fill="#9ec8ff"/>
          <g id="Group_15071" data-name="Group 15071" transform="translate(2.515)">
            <path id="Path_18063" data-name="Path 18063" d="M948.893,1844.777a15.018,15.018,0,0,0-15.018-15.018v15.018Z" transform="translate(-918.857 -1829.759)" fill="#f39892"/>
            <path id="Path_18064" data-name="Path 18064" d="M905.149,1858.485a15.018,15.018,0,0,0,15.018,15.018A15.09,15.09,0,0,1,905.149,1858.485Z" transform="translate(-905.149 -1843.467)" fill="#f39892"/>
            <path id="Path_18065" data-name="Path 18065" d="M920.167,1829.759a15.018,15.018,0,0,0-15.018,15.018A15.09,15.09,0,0,1,920.167,1829.759Z" transform="translate(-905.149 -1829.759)" fill="#f39892"/>
            <path id="Path_18066" data-name="Path 18066" d="M933.875,1873.5a15.018,15.018,0,0,0,15.018-15.018A15.089,15.089,0,0,1,933.875,1873.5Z" transform="translate(-918.857 -1843.467)" fill="#f39892"/>
          </g>
        </g>
        <g id="Group_15073" data-name="Group 15073" transform="translate(123.651 45.789)">
          <rect id="Rectangle_3942" data-name="Rectangle 3942" width="3.28" height="9.49" transform="translate(0 12.715)" fill="#9ec8ff"/>
          <rect id="Rectangle_3943" data-name="Rectangle 3943" width="3.28" height="6.403" transform="translate(42.041 15.802)" fill="#9ec8ff"/>
          <rect id="Rectangle_3944" data-name="Rectangle 3944" width="3.28" height="22.205" transform="translate(13.9)" fill="#9ec8ff"/>
          <rect id="Rectangle_3945" data-name="Rectangle 3945" width="3.28" height="9.981" transform="translate(20.851 12.224)" fill="#9ec8ff"/>
          <rect id="Rectangle_3946" data-name="Rectangle 3946" width="3.28" height="12.806" transform="translate(27.801 9.399)" fill="#9ec8ff"/>
          <rect id="Rectangle_3947" data-name="Rectangle 3947" width="3.28" height="15.757" transform="translate(6.95 6.449)" fill="#9ec8ff"/>
          <rect id="Rectangle_3948" data-name="Rectangle 3948" width="3.28" height="19.407" transform="translate(34.774 2.798)" fill="#9ec8ff"/>
        </g>
        <g id="Group_15075" data-name="Group 15075" transform="translate(0 10.925)">
          <g id="Group_15074" data-name="Group 15074" clip-path="url(#clip-path)">
            <path id="Path_18067" data-name="Path 18067" d="M181.1,1799.42,163.9,1788.9l-3.112,19.921A20.183,20.183,0,0,0,181.1,1799.42Z" transform="translate(-144.871 -1769.869)" fill="#a2dff2"/>
            <path id="Path_18068" data-name="Path 18068" d="M183.962,1790.7c.047-.076.107-.18.1-.177a20.163,20.163,0,0,0,.446-19.848c-6.087,3.189-2.462,1.252-17.77,9.53C183.973,1790.738,181.3,1789.114,183.962,1790.7Z" transform="translate(-147.711 -1761.171)" fill="#9cd499"/>
            <path id="Path_18069" data-name="Path 18069" d="M130.574,1763.549l18.909,6.967,17.738-9.592C158.923,1745.581,136.59,1747.421,130.574,1763.549Z" transform="translate(-130.451 -1751.485)" fill="#9ec8ff"/>
            <path id="Path_18070" data-name="Path 18070" d="M145.214,1802.462l3.112-19.921-18.909-6.967A20.2,20.2,0,0,0,145.214,1802.462Z" transform="translate(-129.294 -1763.509)" fill="#f39892"/>
            <path id="Path_18071" data-name="Path 18071" d="M127.874,1773.17a1.942,1.942,0,0,1,.955.247,19.289,19.289,0,0,1,.687-2.683l10.267,3.783v-.009a1.823,1.823,0,0,1,.446-1.252l-1.028-.379-9.217-3.4a19.758,19.758,0,0,1,2.97-4.995,2,2,0,0,1-1.025-.861,21.12,21.12,0,0,0-3.2,5.393l-.011,0-.233.625-.235.629.011,0a20.655,20.655,0,0,0-.752,2.936A1.833,1.833,0,0,1,127.874,1773.17Z" transform="translate(-128.989 -1757.807)" fill="#fff"/>
            <path id="Path_18072" data-name="Path 18072" d="M166.359,1760.591l.011-.006-.318-.588-.02-.035-.26-.484-.01.005a20.59,20.59,0,0,0-8.311-8.062,21.152,21.152,0,0,0-23.1,2.522,2.066,2.066,0,0,1,.85,1.036,19.539,19.539,0,0,1,11.264-4.5,19.191,19.191,0,0,1,18.087,9.567l-5.238,2.833c-1.082.582-2.594,1.4-5.125,2.77l-6.276,3.4-.162.087-.526-.322-.029.183-3.689-1.359a1.843,1.843,0,0,1-.494,1.244l3.972,1.463-2.922,18.707a19.62,19.62,0,0,1-15.829-18.919,1.92,1.92,0,0,1-.65.119,1.948,1.948,0,0,1-.688-.125,20.954,20.954,0,0,0,16.96,20.247l0,.012.659.1.662.1,0-.011a20.849,20.849,0,0,0,19.985-9.275l.014.008.131-.215s.213-.35.213-.35c.033-.053.072-.12.095-.158l.014-.023.01-.018.212-.347-.009-.006A20.913,20.913,0,0,0,166.359,1760.591Zm-20.979,28.668,2.852-18.26,7.422,4.54,5.782,3.535L164,1780.64A19.417,19.417,0,0,1,145.38,1789.259Zm19.328-9.778-.128-.075c-.7-.416-1.008-.6-2.408-1.451l-13.105-8.014,10.879-5.882c1.6-.86,2.252-1.2,3.875-2.051l1.39-.727A19.572,19.572,0,0,1,164.708,1779.481Z" transform="translate(-128.694 -1750.874)" fill="#e7f3fe"/>
          </g>
        </g>
        <g id="Group_15077" data-name="Group 15077" transform="translate(72.772 7.587)">
          <path id="Rectangle_3949" data-name="Rectangle 3949" d="M8.169,0H49.487a8.17,8.17,0,0,1,8.17,8.17v9.716a8.17,8.17,0,0,1-8.17,8.17H8.17A8.17,8.17,0,0,1,0,17.886V8.169A8.169,8.169,0,0,1,8.169,0Z" fill="#9ec8ff"/>
          <rect id="Rectangle_3950" data-name="Rectangle 3950" width="54.504" height="17.988" rx="6.6" transform="translate(1.576 6.846)" fill="#fff"/>
          <g id="Group_15076" data-name="Group 15076" transform="translate(2.377 1.918)">
            <rect id="Rectangle_3951" data-name="Rectangle 3951" width="2.259" height="2.033" rx="1.016" fill="#fff"/>
            <rect id="Rectangle_3952" data-name="Rectangle 3952" width="2.259" height="2.033" rx="1.016" transform="translate(4.107)" fill="#fff"/>
            <rect id="Rectangle_3953" data-name="Rectangle 3953" width="2.259" height="2.033" rx="1.016" transform="translate(8.214)" fill="#fff"/>
          </g>
          <path id="Path_18074" data-name="Path 18074" d="M345.463,1765.174h-28.83a.863.863,0,0,1,0-1.725h28.83a.863.863,0,1,1,0,1.725Z" transform="translate(-291.601 -1754.386)" fill="#9ec8ff"/>
          <path id="Path_18075" data-name="Path 18075" d="M303.986,1790.626h-28.83a.862.862,0,0,1,0-1.725h28.83a.862.862,0,1,1,0,1.725Z" transform="translate(-271.807 -1766.532)" fill="#9ec8ff"/>
          <rect id="Rectangle_3954" data-name="Rectangle 3954" width="3.573" height="1.725" rx="0.862" transform="translate(34.211 22.369)" fill="#9ec8ff"/>
          <rect id="Rectangle_3955" data-name="Rectangle 3955" width="3.573" height="1.725" rx="0.862" transform="translate(38.708 22.369)" fill="#9ec8ff"/>
          <path id="Path_18076" data-name="Path 18076" d="M328.983,1772.868H281.242a.585.585,0,0,1,0-1.171h47.741a.585.585,0,1,1,0,1.171Z" transform="translate(-274.844 -1758.322)" fill="#9ec8ff"/>
          <path id="Path_18077" data-name="Path 18077" d="M328.983,1777.7H281.242a.585.585,0,1,1,0-1.17h47.741a.585.585,0,1,1,0,1.17Z" transform="translate(-274.844 -1760.628)" fill="#9ec8ff"/>
        </g>
        <g id="Group_15078" data-name="Group 15078" transform="translate(246.321 2.702)">
          <path id="Path_18078" data-name="Path 18078" d="M626.123,1751.119H601.5v-14.35h18.515l6.1,6.1Z" transform="translate(-601.503 -1736.769)" fill="#ffb8b3"/>
          <path id="Path_18079" data-name="Path 18079" d="M636.055,1736.769v7.659h6.556v-1.472l-6.146-6.146Z" transform="translate(-617.991 -1736.769)" fill="#f39892"/>
          <path id="Path_18080" data-name="Path 18080" d="M636.919,1736.769v6.188h6.1Z" transform="translate(-618.404 -1736.769)" fill="#ffb8b3"/>
          <path id="Path_18081" data-name="Path 18081" d="M617.389,1746.275H606.417a.435.435,0,1,1,0-.87h10.972a.435.435,0,1,1,0,.87Z" transform="translate(-603.64 -1740.89)" fill="#fff"/>
          <path id="Path_18082" data-name="Path 18082" d="M617.389,1750.531H606.417a.435.435,0,1,1,0-.87h10.972a.435.435,0,1,1,0,.87Z" transform="translate(-603.64 -1742.921)" fill="#fff"/>
          <path id="Path_18083" data-name="Path 18083" d="M617.389,1755.01H606.417a.435.435,0,1,1,0-.87h10.972a.435.435,0,0,1,0,.87Z" transform="translate(-603.64 -1745.058)" fill="#fff"/>
        </g>
        <circle id="Ellipse_97" data-name="Ellipse 97" cx="0.736" cy="0.736" r="0.736" transform="translate(257.159 3.069)" fill="#3e6bab"/>
        <rect id="Rectangle_3956" data-name="Rectangle 3956" width="15.648" height="18.867" transform="translate(149.713 0.435) rotate(10.935)" fill="#fae8b6"/>
        <path id="Path_18084" data-name="Path 18084" d="M432.148,1751.266,424,1749.693a.4.4,0,0,1,.152-.788l8.146,1.574a.4.4,0,0,1-.153.788Z" transform="translate(-270.323 -1739.854)" fill="#9ec8ff"/>
        <path id="Path_18085" data-name="Path 18085" d="M431.4,1755.161l-8.145-1.574a.4.4,0,1,1,.152-.788l8.145,1.573a.4.4,0,0,1-.152.788Z" transform="translate(-269.963 -1741.713)" fill="#9ec8ff"/>
        <path id="Path_18086" data-name="Path 18086" d="M430.623,1759.163l-8.146-1.574a.4.4,0,0,1,.153-.789l8.145,1.574a.4.4,0,0,1-.152.788Z" transform="translate(-269.594 -1743.623)" fill="#9ec8ff"/>
        <path id="Path_18087" data-name="Path 18087" d="M428.124,1736.458a.669.669,0,1,1-.53-.784A.669.669,0,0,1,428.124,1736.458Z" transform="translate(-271.811 -1733.538)" fill="#3e6bab"/>
        <path id="Path_18088" data-name="Path 18088" d="M648.627,1786.731l-23.777-2.5,1.57-14.9,18.852,1.986,4.406,5.443Z" transform="translate(-366.323 -1749.602)" fill="#9ec8ff"/>
        <path id="Path_18089" data-name="Path 18089" d="M645.905,1773.454l-17.7-1.864-1.325,12.575,22,2.318.776-7.363-4.3-.453Z" transform="translate(-367.293 -1750.683)" fill="#fff"/>
        <path id="Path_18090" data-name="Path 18090" d="M647.823,1781.917l-11.465-1.208a.48.48,0,0,1,.1-.956l11.464,1.208a.48.48,0,1,1-.1.955Z" transform="translate(-371.61 -1754.578)" fill="#9ec8ff"/>
        <path id="Path_18091" data-name="Path 18091" d="M647.314,1786.749l-11.464-1.208a.48.48,0,1,1,.1-.955l11.464,1.208a.48.48,0,1,1-.1.955Z" transform="translate(-371.367 -1756.885)" fill="#9ec8ff"/>
        <path id="Path_18092" data-name="Path 18092" d="M646.782,1791.8l-11.464-1.208a.48.48,0,0,1,.1-.955l11.465,1.208a.48.48,0,0,1-.1.955Z" transform="translate(-371.114 -1759.293)" fill="#9ec8ff"/>
        <circle id="Ellipse_98" data-name="Ellipse 98" cx="0.736" cy="0.736" r="0.736" transform="translate(268.258 22.426)" fill="#3e6bab"/>
        <g id="Group_15081" data-name="Group 15081" transform="translate(20.166 66.419)">
          <rect id="Rectangle_3957" data-name="Rectangle 3957" width="51.738" height="21.32" rx="10.66" transform="translate(51.738 21.32) rotate(-180)" fill="#9ec8ff"/>
          <path id="Path_18095" data-name="Path 18095" d="M243.55,1891.64V1903.4L230,1889.848S243.274,1891.64,243.55,1891.64Z" transform="translate(-198.061 -1873.536)" fill="#9ec8ff"/>
          <rect id="Rectangle_3958" data-name="Rectangle 3958" width="46.385" height="17.093" rx="8.546" transform="translate(49.061 19.206) rotate(180)" fill="#fff"/>
          <path id="Path_18096" data-name="Path 18096" d="M213.6,1869.1h20.952a.919.919,0,0,0,0-1.838H213.6a.919.919,0,1,0,0,1.838Z" transform="translate(-189.799 -1862.757)" fill="#9ec8ff"/>
          <rect id="Rectangle_3959" data-name="Rectangle 3959" width="39.883" height="1.032" rx="0.516" transform="translate(45.672 9.854) rotate(180)" fill="#9ec8ff"/>
          <rect id="Rectangle_3960" data-name="Rectangle 3960" width="39.883" height="1.032" rx="0.516" transform="translate(45.672 11.855) rotate(180)" fill="#9ec8ff"/>
        </g>
        <g id="Group_15082" data-name="Group 15082" transform="translate(355.534 68.903)">
          <rect id="Rectangle_3961" data-name="Rectangle 3961" width="4.377" height="3.94" rx="1.97" transform="translate(20.294 3.94) rotate(180)" fill="#9ec8ff"/>
          <path id="Rectangle_3962" data-name="Rectangle 3962" d="M1.97,0h.438a1.97,1.97,0,0,1,1.97,1.97v0a1.97,1.97,0,0,1-1.97,1.97H1.97A1.97,1.97,0,0,1,0,1.97v0A1.97,1.97,0,0,1,1.97,0Z" transform="translate(12.336 3.94) rotate(-180)" fill="#9ec8ff"/>
          <rect id="Rectangle_3963" data-name="Rectangle 3963" width="4.377" height="3.94" rx="1.97" transform="translate(4.377 3.94) rotate(180)" fill="#9ec8ff"/>
        </g>
      </g>
    </g>
    <path id="Path_18097" data-name="Path 18097" d="M573.42,2202.207c-34.563-1.69-152.143,1.172-187.9,2.289s-77.268-1.472-98.83-5.279-146.2.324-140.54,10.558,55.53,4.578,112.088,8.691,183.759-.514,212.451,0,55-1.029,91.979-3.085S593.454,2203.186,573.42,2202.207Z" transform="translate(-14.06 -234.731)" fill="#cce2ff"/>
    <g id="Group_15089" data-name="Group 15089" transform="translate(381.255 1801.159)">
      <path id="Path_18098" data-name="Path 18098" d="M816.612,1913.992c1.716,6.049-2.475,12.282-7.091,13.592s-7.91-2.8-9.626-8.85.635-12.014,5.251-13.324S814.9,1907.943,816.612,1913.992Z" transform="translate(-707.109 -1896.227)" fill="#f09959"/>
      <path id="Path_18099" data-name="Path 18099" d="M778,2146.271s11.831,18.375,13.429,19.175,5.593,1,4.095,3.995-2.1,14.78-3.5,15.38-13.382,2-11.585,0,2.9-1,3.81-4.594,2.182-10.386.484-11.784-12.084-13.981-12.084-13.981Z" transform="translate(-694.376 -2011.29)" fill="#f09959"/>
      <path id="Path_18100" data-name="Path 18100" d="M647,2161.365s-14.382,23.7-17.045,25.834-11.452,5.326-4.261,5.859,10.653-2.4,15.181-3.729,10.12-2.13,7.99-5.593-1.246-11.021,3.347-15.815S647,2161.365,647,2161.365Z" transform="translate(-622.927 -2018.493)" fill="#f09959"/>
      <path id="Path_18101" data-name="Path 18101" d="M736.792,2056.212s-35.6-.93-49.717,10.653c-8.256,12.518-28.23,49.451-29.782,53.521,1.065,1.065,7.058,2.988,9.721,2.721,7.857-9.368,18.242-17.467,22.372-24.815,5.089-9.055,6.658-13.583,14.914-14.382s26.9-3.462,32.492-3.462S736.792,2056.212,736.792,2056.212Z" transform="translate(-639.327 -1968.304)" fill="#6791c9"/>
      <path id="Path_18102" data-name="Path 18102" d="M854.826,2171.145h-1.866l-13.382-55.833h4.106Z" transform="translate(-726.314 -1996.516)" fill="#2e5b9a"/>
      <path id="Path_18103" data-name="Path 18103" d="M761.812,2169.344h1.866l15.356-57.807h-4.106Z" transform="translate(-689.204 -1994.714)" fill="#2e5b9a"/>
      <path id="Path_18104" data-name="Path 18104" d="M784.26,2051.564l-20.7,3.572s-27.506.253-40.079,2.595c-11.439,2.13-13.125,15.128,0,33.024,7.456,10.167,13.759,18.277,26.65,27.421,3.279-2.407,4.534-3.318,5.44-9.111-.933-1.279-3.348-9.285-4.1-10.853-7.13-14.9-16.647-20.324-16.779-21.791,1.6-2.6,42.326,13.535,50.424,4.046C792.851,2071.408,784.26,2051.564,784.26,2051.564Z" transform="translate(-666.511 -1966.095)" fill="#75a1de"/>
      <path id="Path_18105" data-name="Path 18105" d="M825.692,1961.715a21.656,21.656,0,0,0-16.2,4.03c-4.537,4.625-9.672,12.252-9.357,24.834.4,15.979-2.473,17,.523,21.4,12.5,5.16,33.867,27.331,28.835,3.562-3.644-17.211,7.993-30.039-1.395-49.13C827.338,1964.858,826.383,1963.351,825.692,1961.715Z" transform="translate(-707.084 -1923.106)" fill="#f37168"/>
      <path id="Path_18106" data-name="Path 18106" d="M800.136,2000.237c-.242,8.33-1.419,10.784-.52,13.4,5.094.52,14.413,2.559,16.741,5.819,2.663,3.729,5.327,4.261,4.084,1.51s-4.527-6.658.533-20.064,7.457-22.46,2.486-31.782Z" transform="translate(-707.085 -1926.75)" fill="#d54a41"/>
      <path id="Path_18107" data-name="Path 18107" d="M835.016,1946.526a65.022,65.022,0,0,1-4.181-16.875l-8.789,2.6s4.994,11.185.2,15.18a45.766,45.766,0,0,0-3.426,3.129A21.654,21.654,0,0,1,835.016,1946.526Z" transform="translate(-716.409 -1907.917)" fill="#f09959"/>
      <path id="Path_18108" data-name="Path 18108" d="M834.057,1932.2c-.521-.463-1.172-1.042-1.857-1.646l-7.168,2.118-.015.039a29.279,29.279,0,0,1,2.24,8.755,25.278,25.278,0,0,0,7.149-7.1C834.261,1933.543,834.146,1932.813,834.057,1932.2Z" transform="translate(-719.366 -1908.347)" fill="#e38540"/>
      <path id="Path_18109" data-name="Path 18109" d="M789.245,1966.481c-9.052,3.166-8.047,12.7-16.378,26.764-4.311,7.278-8.316,7.17-8.316,7.17A192.888,192.888,0,0,1,742.211,1999c-7.658-.937-8.145,1.344-2.818,3.248,10.742,3.841,21.889,7.975,30.878,6.976s24.361-23.932,25.154-29.9C796.52,1971.067,793.8,1964.887,789.245,1966.481Z" transform="translate(-676.816 -1925.373)" fill="#f09959"/>
      <g id="Group_15085" data-name="Group 15085" transform="translate(75.947 60.809)">
        <path id="Path_18110" data-name="Path 18110" d="M800.019,2064.708c-.563,0-1.139-.007-1.73-.022a86.044,86.044,0,0,1-16.433-2.022c-4.711-.957-7.306-1.485-10.326-.042a2.327,2.327,0,1,1-2.007-4.2c4.427-2.115,8.132-1.362,13.26-.32a82,82,0,0,0,15.622,1.931c7.8.195,12.552-.962,14.961-3.635,2.147-2.381,2.776-6.381,1.977-12.589-.273-2.125-.546-3.892-.788-5.451-.68-4.4-1.129-7.3-.573-11.8.517-4.172,1.9-9.729,5.1-20.5a2.327,2.327,0,0,1,4.461,1.325c-5.962,20.079-5.659,22.034-4.387,30.264.246,1.587.523,3.385.8,5.569.984,7.656-.012,12.835-3.136,16.3C813.6,2063.083,808.382,2064.708,800.019,2064.708Z" transform="translate(-768.198 -2004.394)" fill="#2e5b9a"/>
      </g>
      <path id="Path_18111" data-name="Path 18111" d="M647.978,2199.579c-9.542,4.667-14.679,7.342-17.738,7.086-.722-.06-1.321-.134-1.822-.212-3.4,2.012-8.835,4.388-2.723,4.841,7.191.532,10.653-2.4,15.181-3.729s10.12-2.13,7.99-5.593A7.285,7.285,0,0,1,647.978,2199.579Z" transform="translate(-622.927 -2036.729)" fill="#d54a41"/>
      <path id="Path_18112" data-name="Path 18112" d="M799.408,2183.694c-.233,7.555-1.272,15.042-5.893,16.457a7.769,7.769,0,0,1-3.329.3c-.727.9-1.613.908-2.8,2.231-1.8,2,10.187.6,11.585,0s2-12.384,3.5-15.38C803.693,2184.838,801.217,2184.263,799.408,2183.694Z" transform="translate(-701.319 -2029.148)" fill="#d54a41"/>
      <g id="Group_15086" data-name="Group 15086" transform="translate(16.438 52.023)">
        <path id="Path_18113" data-name="Path 18113" d="M699.264,2018.609H668.948a2.326,2.326,0,0,1-2.11-1.346L654.587,1990.9a2.327,2.327,0,0,1,4.22-1.961l11.626,25.02h28.831a2.327,2.327,0,1,1,0,4.653Z" transform="translate(-654.37 -1987.588)" fill="#75a1de"/>
      </g>
      <path id="Path_18114" data-name="Path 18114" d="M727.77,2026.444c-6.126-.089-12.2-3.74-15.219-3.207s-12.872,7.368-11.63,7.635,9.055-3.783,9.322-3.845,1.953,2.8,6.126,3.857.029-3.127,12.963.779C737.741,2034.2,727.77,2026.444,727.77,2026.444Z" transform="translate(-660.095 -1952.551)" fill="#f09959"/>
      <path id="Path_18115" data-name="Path 18115" d="M829.148,1948.058l.9,7.252s-7.927.472-11.871,2.691-9.766,8.632-9.766,8.632l4.756-8.188.685-5.238Z" transform="translate(-711.442 -1916.701)" fill="#f2e5de"/>
      <path id="Path_18116" data-name="Path 18116" d="M799.476,1964.908c-5.888-1.1-8.611,4.172-12.428,12.783s-10.334,19.07-11.63,20.419-21.839,0-21.839,0-.622,5.948,0,6.658,4.172.622,4.172.622,1.42,1.134,2.752,2.031,12.606,2.585,17.844,2.318,10.032-.71,10.742-1.509,15-22.816,15.891-30.717S802.481,1965.47,799.476,1964.908Z" transform="translate(-685.143 -1924.673)" fill="#f2e5de"/>
      <path id="Path_18117" data-name="Path 18117" d="M799.752,1892.092c-11.135.533-9.389,17.284-9.389,17.284s2.892.893,8.951-.106a33.428,33.428,0,0,1-.267-6.391,41.882,41.882,0,0,0,1.6,5.992c1.281.587,2.73.066,5.194-.529a10.956,10.956,0,0,0,7.287,8.341c2.7.85,5.567,1.864,8.764.267s1.438-17.933-.259-21.218c-2.547-4.931-6.781-9.344-14.1-7.013A54.375,54.375,0,0,0,799.752,1892.092Z" transform="translate(-702.781 -1888.078)" fill="#303c60"/>
      <path id="Path_18118" data-name="Path 18118" d="M845.453,1932.717l4.553,6.649s-5.046,12.606,9.629,18.318c11.492,4.473,10.139,12.354,4.945,20.28s3.107,14.847,3.107,14.847,1.266-8.78,12.431-10.437c15.225-2.26,19.536-22.7,8.164-32.922-9.41-8.458-12.273-1.453-18.643-9.043s-18.395-2.463-18.395-2.463l-4.407-6.427Z" transform="translate(-729.118 -1908.808)" fill="#303c60"/>
      <g id="Group_15087" data-name="Group 15087" transform="translate(121.722 26.241)">
        <path id="Path_18119" data-name="Path 18119" d="M898.438,1973.267a.4.4,0,0,1-.194-.05.405.405,0,0,1-.161-.55c3.828-7,.7-15.472-.867-17.769-.166-.243-.324-.49-.491-.751-1.544-2.41-3.465-5.409-13.716-7.254-2.469-.444-4.468-1.912-6.584-3.466-4.372-3.209-9.326-6.846-20.092-1.892a.4.4,0,1,1-.338-.735c11.2-5.155,16.358-1.367,20.909,1.974,2.039,1.5,3.964,2.91,6.249,3.322,10.6,1.908,12.626,5.072,14.254,7.614.164.256.318.5.479.73,1.646,2.406,4.919,11.286.909,18.615A.4.4,0,0,1,898.438,1973.267Z" transform="translate(-855.758 -1938.273)" fill="#303c60"/>
      </g>
      <g id="Group_15088" data-name="Group 15088" transform="translate(102.007 14.884)">
        <path id="Path_18120" data-name="Path 18120" d="M829.943,1932.387a16.067,16.067,0,0,1-2.365-.19c-3.9-.584-9.122-2.8-9.532-15.23a.4.4,0,0,1,.809-.027c.169,5.125,1.186,8.917,3.022,11.27a8.491,8.491,0,0,0,5.821,3.186c3.6.54,5.995-.125,7.1-1.979a.405.405,0,0,1,.7.416C834.48,1931.532,832.617,1932.387,829.943,1932.387Z" transform="translate(-818.046 -1916.549)" fill="#303c60"/>
      </g>
    </g>
    <g id="Group_15090" data-name="Group 15090" transform="translate(330.14 1883.542)">
      <rect id="Rectangle_3964" data-name="Rectangle 3964" width="129.389" height="4.822" rx="2.411" fill="#2e5b9a"/>
      <path id="Path_18121" data-name="Path 18121" d="M551.119,2140.9h2.992l11.638-88.963h-6.582Z" transform="translate(-537.545 -2048.658)" fill="#2e5b9a"/>
      <path id="Path_18122" data-name="Path 18122" d="M731.951,2140.9h-2.992l-11.638-88.963H723.9Z" transform="translate(-616.857 -2048.658)" fill="#2e5b9a"/>
    </g>
    <g id="Group_15091" data-name="Group 15091" transform="translate(526.4 1879.971)">
      <path id="Path_18123" data-name="Path 18123" d="M964.792,2078.471c5.176,4.726,2.926,9.452-.9,18.229s-4.5,41.184-4.5,41.184l3.151-.45s-.45-33.307,3.826-42.309,6.076-13.5,9.9-10.578S964.792,2078.471,964.792,2078.471Z" transform="translate(-928.635 -2057.747)" fill="#74b570"/>
      <path id="Path_18124" data-name="Path 18124" d="M964.029,2053.435c.629-2.8,4.362-5.832,9.354-8.4-.742,4.131-3.122,10.885-.659,12.271,3.322,1.868.324-7.562,1.605-12.745a61.676,61.676,0,0,1,15.519-5.091c-.007.02-.013.037-.021.057-2.926,7.426-6.751,10.352-5.176,11.477,1.185.846,5.046-7.732,10.143-12.13,3.826-.2,7.063.315,8.978,1.831,2.96,2.343,4.946,4.422,1.97,11.557a13.375,13.375,0,0,1-6.463,2.342c-6.751.676-9.9.9-5.176,3.151,2.314,1.1,6.193-.062,9.339-.772-1.021,1.881-2.275,4.008-3.8,6.432a23.923,23.923,0,0,1-3.163,4.025,9.99,9.99,0,0,1-5.078-.009c-3.15-1.35-11.252-5.626-13.278-3.826-1.982,1.762,15,2.878,13.827,7.356-8.233,4.744-17.655,2.487-19.32-1.869C970.4,2063.242,962.136,2061.865,964.029,2053.435Z" transform="translate(-930.715 -2038.83)" fill="#9cd499"/>
      <path id="Path_18125" data-name="Path 18125" d="M973.591,2125.346c-9-6.751-18.229-.45-22.955,6.751s-1.35,23.405-1.35,23.405,1.8,0,1.8-.675-4.951-19.129,6.751-27.456c7.321-5.209,12.6-2.7,13.278-.225s-2.926,6.976-2.926,6.976Z" transform="translate(-923.255 -2078.741)" fill="#74b570"/>
      <path id="Path_18126" data-name="Path 18126" d="M956.874,2101.429c9,0,11.927,13.953,9.452,22.054s-5.851,23.18-5.851,23.18l-2.251-2.251s8.552-21.154,6.526-30.606-6.977-11.027-7.877-11.027S956.874,2101.429,956.874,2101.429Z" transform="translate(-927.242 -2068.703)" fill="#9cd499"/>
      <path id="Path_18127" data-name="Path 18127" d="M969.619,2141.917a6.518,6.518,0,0,1,2.37-1.991,17.833,17.833,0,0,1-.468,1.929c-1.128,3.691-2.443,8.83-3.54,13.332l-.491-2.835c-.056-.324-.1-.675-.13-1.047A87.256,87.256,0,0,0,969.619,2141.917Z" transform="translate(-932.437 -2087.074)" fill="#74b570"/>
      <path id="Path_18128" data-name="Path 18128" d="M972.14,2132.281c17.1-7.2,8.092-17.083,23.171-10.557a2.624,2.624,0,1,1-1.125,3.6c-4.5-.676-2.926,2.926,4.5,3.825a16.648,16.648,0,0,1,3.48.734c3.538,6.8,5.132,15.737-2.355,18.845a16.957,16.957,0,0,1-5.329,1.093c-2.31-1.836.564-12.462-3-11-3.42,1.408,1.072,9.109.456,11.049a49.323,49.323,0,0,1-10.684-1.5,5.319,5.319,0,0,1-2.825-3.251c-1.125-4.726,6.3-7.651,6.526-11.7.207-3.724-2.722,8.193-10.481,9.947C967.461,2140.1,964.145,2135.648,972.14,2132.281Z" transform="translate(-932.498 -2077.371)" fill="#9cd499"/>
      <path id="Path_18129" data-name="Path 18129" d="M928.016,2104.617c1.8-3.826-2.926-4.726-2.7-1.8.2,2.593.222,8.894-2.437,10.61a41.713,41.713,0,0,1-15.54-5.161,1.915,1.915,0,0,1,.2-1.173c2.025-4.051,15.078-7.426,11.027-8.777-3.226-1.075-8.879,5.272-13.435,8.469-2.736-2.076-4.569-4.551-4.569-7.313,0-3.738,4.543-7.971,10.418-9.993,2.644.267,5.1,1.712,8.937,3.886,5.667,3.211,4.356-1.98-1-5.062a16.141,16.141,0,0,1,12.639,6.937s-.322,2.019,1.814,5.14c5.828,8.517-.9,13.489-8.936,13.165C924.884,2111.3,926.772,2107.26,928.016,2104.617Z" transform="translate(-900.56 -2062.438)" fill="#9cd499"/>
      <path id="Path_18130" data-name="Path 18130" d="M993.969,2127.193c4.4,3.4,9.29,7.377,15.291,10.078s4.8,11.5,4.8,11.5.9-7.6-4.1-10.2-8.3-5.7-12.1-6.3a55.046,55.046,0,0,1-5.9-1.2s1.2-2.4.5-3.3S993.969,2127.193,993.969,2127.193Z" transform="translate(-944.175 -2080.97)" fill="#74b570"/>
      <path id="Path_18131" data-name="Path 18131" d="M1007.811,2050.857c-16.1,4.3-27.908,14.6-30.108,17.1s-2.2,3.2-2.2,3.2l1.7,3.2.8-.4s-1.3-2.7,2.1-6.2c5.865-6.037,13-10.8,17.9-12.9S1007.811,2050.857,1007.811,2050.857Z" transform="translate(-936.323 -2044.569)" fill="#74b570"/>
      <path id="Rectangle_3965" data-name="Rectangle 3965" d="M11,0h0A11,11,0,0,1,22,11v11.06a0,0,0,0,1,0,0H0a0,0,0,0,1,0,0V11A11,11,0,0,1,11,0Z" transform="translate(41.109 95.427) rotate(180)" fill="#75a1de"/>
      <rect id="Rectangle_3966" data-name="Rectangle 3966" width="21.996" height="1.548" transform="translate(19.113 75.896)" fill="#fff"/>
      <rect id="Rectangle_3967" data-name="Rectangle 3967" width="21.996" height="0.911" transform="translate(19.113 78.72)" fill="#fff"/>
    </g>
    <g id="Group_15092" data-name="Group 15092" transform="translate(116.498 1947.818)">
      <rect id="Rectangle_3968" data-name="Rectangle 3968" width="9.262" height="8.336" rx="4.168" transform="translate(42.943 8.336) rotate(180)" fill="#9ec8ff"/>
      <rect id="Rectangle_3969" data-name="Rectangle 3969" width="9.262" height="8.336" rx="4.168" transform="translate(26.102 8.336) rotate(180)" fill="#9ec8ff"/>
      <rect id="Rectangle_3970" data-name="Rectangle 3970" width="9.262" height="8.336" rx="4.168" transform="translate(9.262 8.336) rotate(180)" fill="#9ec8ff"/>
    </g>
    <g id="Group_15093" data-name="Group 15093" transform="translate(589.419 1793.556)">
      <path id="Rectangle_3971" data-name="Rectangle 3971" d="M4.168,0h.927A4.168,4.168,0,0,1,9.262,4.168v0A4.168,4.168,0,0,1,5.094,8.336H4.168A4.168,4.168,0,0,1,0,4.168v0A4.168,4.168,0,0,1,4.168,0Z" transform="translate(8.336 0) rotate(90)" fill="#9ec8ff"/>
      <path id="Rectangle_3972" data-name="Rectangle 3972" d="M4.168,0h.927A4.168,4.168,0,0,1,9.262,4.168v0A4.168,4.168,0,0,1,5.094,8.336H4.168A4.168,4.168,0,0,1,0,4.168v0A4.168,4.168,0,0,1,4.168,0Z" transform="translate(8.336 16.84) rotate(90)" fill="#9ec8ff"/>
      <path id="Rectangle_3973" data-name="Rectangle 3973" d="M4.168,0h.927A4.168,4.168,0,0,1,9.262,4.168v0A4.168,4.168,0,0,1,5.094,8.336H4.168A4.168,4.168,0,0,1,0,4.168v0A4.168,4.168,0,0,1,4.168,0Z" transform="translate(8.336 33.681) rotate(90)" fill="#9ec8ff"/>
    </g>
  </g>
</svg>
