<svg xmlns="http://www.w3.org/2000/svg" width="176.55" height="163.257" viewBox="0 0 176.55 163.257">
  <g id="Group_22882" data-name="Group 22882" transform="translate(-1020.283 -852.764)">
    <circle id="Ellipse_124" data-name="Ellipse 124" cx="81.629" cy="81.629" r="81.629" transform="translate(1020.283 852.764)" fill="#cce2ff"/>
    <g id="Group_16553" data-name="Group 16553" transform="translate(308.25 -286.542)">
      <g id="Group_16552" data-name="Group 16552" transform="translate(736.537 1145.729)">
        <g id="Group_16543" data-name="Group 16543" transform="translate(0 9.011)">
          <path id="Path_20210" data-name="Path 20210" d="M370.939,1724.129s25.808,1.821,45.495.885c9.378.239,11.972-7.648,11.03-11.7-1.4-6.021-6.691-9.451-6.691-9.451l-19.641,2.121s1.88,5.109,3.4,11.092c.126.494-11.8-7.592-25.858-4.984-3.086.572-4.521,3.21-6.176,3.293-5.7-9.388-6.533,1.066-25.541,8.231C341.4,1726.608,370.939,1724.129,370.939,1724.129Z" transform="translate(-346.263 -1596.782)" fill="#f48c7f"/>
          <path id="Path_20211" data-name="Path 20211" d="M566.667,1343.443s-1-1.919-.446-5.622c.358-2.375-.726-6.578.665-6.08s.975,4.654,1.913,4.079,2.357-9.186,3.618-8.734-.582,8.479.258,7.965,1.766-8.043,3.549-7.405-1.855,8.731-.9,9.073,3.125-4.825,4.561-4.312-3.277,6.9-2.783,6.6,3.96-2.661,4.4-1.935c.5.82-6.574,6.219-6.852,8.373s-7.721,25.275-11.631,26.656-25.13-5.721-27.775-9.285-2.067-8.389.3-9.841,21.93,5.98,22.674,5.524S566.667,1343.443,566.667,1343.443Z" transform="translate(-490.095 -1307.344)" fill="#f7a491"/>
          <path id="Path_20212" data-name="Path 20212" d="M516.24,1426.438c-2.17-2.17-19.7-9.342-24.707-8.906a7.8,7.8,0,0,0-6.249,3.752,7.277,7.277,0,0,0,.345,8c3.408,5.367,27,12.958,27.988,11.531C514.54,1439.484,516.361,1426.559,516.24,1426.438Z" transform="translate(-452.254 -1376.82)" fill="#d4573a"/>
          <g id="Group_16542" data-name="Group 16542" transform="translate(1.686 0)">
            <g id="Group_16541" data-name="Group 16541">
              <path id="Path_20213" data-name="Path 20213" d="M435.064,1645.783s-.689,6.178.393,7.8c8.118,12.206,37.125,14.494,37.125,14.494s8.917-8.166,13.317-10.1c4.094-1.8,6.112-.023,5.7-1.316-11.308-8.383-32.823-16.58-32.823-16.58Z" transform="translate(-415.996 -1547.787)" fill="#3c8f7c"/>
              <path id="Path_20214" data-name="Path 20214" d="M570.781,1706.46s-10.227,16.452-19.3,12.1-4.294-11.532-4.294-11.532l14.12-3.109Z" transform="translate(-501.322 -1596.822)" fill="#3c8f7c"/>
              <path id="Path_20215" data-name="Path 20215" d="M373.085,1724.65s33.363,4.194,42.744,4.149,11.734-8.008,10.669-12.028c-1.582-5.976-4.343-7.122-4.343-7.122l-6.515-2.258s-8.35,6.276-11.946,13.836c-.533-.14-12.021-7.229-26-4.195-3.067.666-6.079-3.192-7.731-3.058s-16.551,12.741-16.428,14.276S373.085,1724.65,373.085,1724.65Z" transform="translate(-353.537 -1599.49)" fill="#f7a491"/>
              <path id="Path_20216" data-name="Path 20216" d="M404.839,1633.711s-.5,6.2.629,7.789c8.485,11.954,37.548,13.359,37.548,13.359s7.807-7.139,11.873-9.705c3.765-2.376,6.588-1.873,6.588-1.873l-32.239-22.289Z" transform="translate(-392.86 -1533.123)" fill="#50bfa5"/>
              <path id="Path_20217" data-name="Path 20217" d="M419.435,1406.587s-8.146-1.749-15.221,5.919c-6.826,7.4-14.011,56.323-14.011,56.323s19.3,5.684,26.76,0,8.525-8.051,8.525-8.051,4.2-13.866,4.79-18.4,3.748-18.358.8-29.079C430.071,1409.648,419.435,1406.587,419.435,1406.587Z" transform="translate(-381.702 -1368.295)" fill="#f47458"/>
              <path id="Path_20218" data-name="Path 20218" d="M514.53,1342.5l-.529,5.841-4.894,8.984s9.649,12.47,12.628,9.49c.665-.665,2.345-13.864,2.345-13.864Z" transform="translate(-473.039 -1319.195)" fill="#f7a491"/>
              <path id="Path_20219" data-name="Path 20219" d="M526.826,1348.338l-1.023,1.994a35.373,35.373,0,0,0,10.516,6.969c.34-2.422.586-4.353.586-4.353l-9.55-10.452Z" transform="translate(-485.864 -1319.195)" fill="#f48c7f"/>
              <path id="Path_20220" data-name="Path 20220" d="M509.22,1260.9s4.115,6.215,4.749,7.781c2.63,6.49,2.2,19.1-4.109,22.331-4.933,2.529-14.051-2.184-19.777-7.967s-6.521-13.752.53-19.4S509.22,1260.9,509.22,1260.9Z" transform="translate(-454.948 -1255.944)" fill="#f7a491"/>
              <path id="Path_20221" data-name="Path 20221" d="M484.971,1243.216c5.435-1.464,9.949-1.229,14.887-1.176a7.92,7.92,0,0,1,3.648.937c1.436.839,3.149,2.678,2.848,4.856l-.705,5.1s-3.5-2.564-5.8-1.656-1.2,6.423-3.035,8.553-4.438,1.664-5.383,3.839-2.106,10.438-4.851,11.086c-1.4.331-4.288-2.745-6.343-6-2.307-3.659-4.61-7.78-4.216-12.33C476.817,1247.233,480.645,1244.381,484.971,1243.216Z" transform="translate(-447.59 -1241.994)" fill="#f7cc7f"/>
              <path id="Path_20222" data-name="Path 20222" d="M537.019,1316.829s-.875-5.231-3.8-3.724.356,9.091,2.854,8.429S537.019,1316.829,537.019,1316.829Z" transform="translate(-490.674 -1296.409)" fill="#f7a491"/>
              <path id="Path_20223" data-name="Path 20223" d="M499.09,1483.082s1.083-1.875,4.508-3.388c2.2-.971,5.166-4.138,5.491-2.7s-3.408,3.317-2.42,3.8,9.019-2.931,9.314-1.624-7.471,4.051-6.587,4.485,7.738-2.818,8.154-.97-8.365,3.111-8.142,4.1,5.749.054,6.084,1.541-7.582.929-7.061,1.184,4.368,1.918,3.994,2.682c-.423.863-8.774-2.219-10.74-1.3s-25.479,7.021-28.739,4.46-8.632-24.285-7.04-28.428,5.977-6.24,8.473-5.016,6.7,21.721,7.483,22.106S499.09,1483.082,499.09,1483.082Z" transform="translate(-439.631 -1410.661)" fill="#f7a491"/>
              <path id="Path_20224" data-name="Path 20224" d="M448.069,1419.668c-2.706,5.753,2.509,26.2,5.05,29.5l14.816-6.04c-.356-3.048-3.728-20.772-6.78-24.768a7.8,7.8,0,0,0-6.516-3.266A7.277,7.277,0,0,0,448.069,1419.668Z" transform="translate(-425.57 -1374.955)" fill="#d4573a"/>
            </g>
          </g>
        </g>
        <g id="Group_16551" data-name="Group 16551" transform="translate(85.807)">
          <g id="Group_16544" data-name="Group 16544" transform="translate(29.103 97.175)">
            <path id="Path_20225" data-name="Path 20225" d="M842.207,1624.3a.311.311,0,0,1-.191-.557,9.437,9.437,0,0,1,9.624-.363.311.311,0,1,1-.271.559c-5.2-2.523-8.821.179-8.972.3A.308.308,0,0,1,842.207,1624.3Z" transform="translate(-841.896 -1622.266)" fill="#b75742"/>
          </g>
          <path id="Path_20226" data-name="Path 20226" d="M804.711,1289.44c-2.059,10.931-8.631,33.919-19.346,33.558-.522-15-1.257-27.881-2.285-31.952a20.806,20.806,0,0,0-.85-2.449c6.674.579,10.684-9.595,12.22-16.763-1.368,4.548-4.469,11.835-8.532,14.27a5.058,5.058,0,0,1-4.641.494c-3.874-7.215-11.193-12.042-14.727-16.337-1.4-1.726-1.65-6.051-1.46-10.481H764.7a42.521,42.521,0,0,0-.057,6.575c.547,5.826,3.553,6.2,10.441,14.022,5.516,6.172,7.441,9.5,7.634,33.156a9.648,9.648,0,0,1-1.525.2c-5.647.1-10.839-5.381-13.715-10.18,2.272,4.364,6.3,9.3,11.027,10.8a10.566,10.566,0,0,0,2.687.466,11.23,11.23,0,0,0,1.535-.089c.123,2.075.793,40.946.231,67.2,1.665.02,1.328,1.01,2.962,1.139-.064-7.111.3-33.7-.456-57.042C797.965,1325.524,803.211,1302.4,804.711,1289.44Z" transform="translate(-753.374 -1246.646)" fill="#184655"/>
          <path id="Path_20227" data-name="Path 20227" d="M877.8,1621.785h1.284v-49.568a.642.642,0,0,0-.642-.642h0a.642.642,0,0,0-.642.642Z" transform="translate(-840.375 -1486.152)" fill="#f7cc7f"/>
          <path id="Path_20228" data-name="Path 20228" d="M815.776,1776.338s5.485-6.625,10.238-4.6,5.531-1.63,8.018-.426,5.6,4.783,5.6,4.783Z" transform="translate(-792.729 -1639.387)" fill="#355389"/>
          <g id="Group_16545" data-name="Group 16545" transform="translate(29.103 98.261)">
            <path id="Path_20229" data-name="Path 20229" d="M846.678,1629.069a9.812,9.812,0,0,1-4.618-1.2.311.311,0,0,1,.29-.55,8.253,8.253,0,0,0,8.958-.3.311.311,0,0,1,.39.485A8.66,8.66,0,0,1,846.678,1629.069Z" transform="translate(-841.894 -1626.949)" fill="#fae0b2"/>
          </g>
          <g id="Group_16546" data-name="Group 16546" transform="translate(24.865 93.238)">
            <path id="Path_20230" data-name="Path 20230" d="M828.37,1611.3l-.554-.327c-.417-.246-4.075-2.452-4.2-4.148a1.177,1.177,0,0,1,.471-1.032,1.707,1.707,0,0,1,1.757-.4c1.753.7,2.371,4.8,2.436,5.271Zm-3.053-5.388a1.377,1.377,0,0,0-.838.366.558.558,0,0,0-.241.5c.071.988,2.067,2.485,3.314,3.3-.274-1.408-.92-3.7-1.935-4.106A.805.805,0,0,0,825.317,1605.908Z" transform="translate(-823.615 -1605.285)" fill="#fae0b2"/>
          </g>
          <g id="Group_16547" data-name="Group 16547" transform="translate(24.774 98.788)">
            <path id="Path_20231" data-name="Path 20231" d="M824.157,1633.448a.863.863,0,0,1-.761-.472,1.145,1.145,0,0,1-.1-1.015c.5-1.353,3.421-2.37,3.753-2.481l.761-.256-.39.7c-.325.585-2.009,3.5-3.251,3.522Zm2.268-3.062c-.984.418-2.291,1.106-2.543,1.79a.521.521,0,0,0,.047.48c.1.172.189.169.232.17C824.695,1632.817,825.682,1631.566,826.425,1630.386Z" transform="translate(-823.223 -1629.223)" fill="#fae0b2"/>
          </g>
          <path id="Path_20232" data-name="Path 20232" d="M841.787,1627.458a.533.533,0,1,1-.532-.533A.533.533,0,0,1,841.787,1627.458Z" transform="translate(-811.89 -1528.67)" fill="#fae0b2"/>
          <g id="Group_16548" data-name="Group 16548" transform="translate(0 0)">
            <path id="Path_20233" data-name="Path 20233" d="M733.522,1223.987a6.618,6.618,0,0,0,4.124-6.6c-.357-4.924-12.231-8.807-15.509-10.658s-3.158-3.606-3.158-3.606-7.105,15.327,2.121,23.529C726.6,1231.55,730.707,1228.849,733.522,1223.987Z" transform="translate(-716.367 -1203.128)" fill="#50bfa5"/>
            <path id="Path_20234" data-name="Path 20234" d="M732.233,1220.313c.591,1.072,1.919,3.8,1.961,5.2a113.283,113.283,0,0,1-6.4-9.455c.823,1.743,1.959,3.927,3.284,6.2-1.325.753-3.646-1.41-3.67-1.433a.156.156,0,1,0-.209.23c.106.1,2.526,2.355,4.045,1.487.6,1.026,1.244,2.066,1.911,3.09-2.376,1.333-6.115-1.308-6.154-1.336a.153.153,0,0,0-.219.034.167.167,0,0,0,.047.225c.168.12,3.971,2.807,6.508,1.353.709,1.076,1.445,2.13,2.2,3.124-2.732,2.1-7.8-.412-7.853-.438-.193-.1-.32.192-.127.287.226.114,5.312,2.631,8.18.414a33.3,33.3,0,0,0,2.88,3.325c-2.42,2.534-7.379,1.434-7.431,1.422a.148.148,0,0,0-.183.121.172.172,0,0,0,.13.193c.223.051,5.2,1.156,7.721-1.505.418.4.835.772,1.248,1.1,4.631,3.605,2.415,6.946,2.325,7.444a.673.673,0,0,0,.221.83c1.153.842,2.028-2.429,1.835-4.217-.4-2.993-2.2-4.194-4.349-6a8.08,8.08,0,0,0,.191-7.092.161.161,0,0,0-.016-.025.163.163,0,0,0-.2-.051.156.156,0,0,0-.063.215,7.743,7.743,0,0,1-.168,6.737,24.3,24.3,0,0,1-2.378-2.315c1.013-2.388-1.291-6.479-1.4-6.668l-.013-.02a.162.162,0,0,0-.2-.048.157.157,0,0,0-.055.218c.025.044,2.244,3.979,1.427,6.251-.938-1.037-1.863-2.153-2.765-3.314.242-1.67-1.884-5.553-1.982-5.729a.164.164,0,0,0-.216-.072A.156.156,0,0,0,732.233,1220.313Z" transform="translate(-724.348 -1213.061)" fill="#3c8f7c"/>
          </g>
          <g id="Group_16549" data-name="Group 16549" transform="translate(47.105 36.918)">
            <path id="Path_20235" data-name="Path 20235" d="M925.752,1375.773s-3.345-2.408-2.234-6.3,11.362-4.223,14.322-4.943,3.156-2.166,3.156-2.166,3.187,14.056-5.644,18.5C930.085,1383.515,927.216,1380.365,925.752,1375.773Z" transform="translate(-922.422 -1362.364)" fill="#50bfa5"/>
            <path id="Path_20236" data-name="Path 20236" d="M932.639,1374.343a12.355,12.355,0,0,0-2.455,3.737,83.174,83.174,0,0,0,6.755-6.123c-.957,1.213-2.24,2.708-3.691,4.23.946.921,3.184-.278,3.207-.29a.135.135,0,0,1,.13.236c-.1.056-2.436,1.3-3.52.245-.659.686-1.352,1.375-2.062,2.044,1.7,1.638,5.164.388,5.2.375a.135.135,0,0,1,.172.08.131.131,0,0,1-.076.171c-.156.057-3.68,1.329-5.489-.445-.753.7-1.525,1.379-2.3,2,1.859,2.338,6.376,1.51,6.424,1.5a.134.134,0,0,1,.055.262c-.2.038-4.736.87-6.685-1.6a24.423,24.423,0,0,1-2.884,2c1.535,2.618,5.728,2.9,5.773,2.9a.136.136,0,0,1,.128.141.129.129,0,0,1-.137.125c-.189-.011-4.4-.294-5.993-3.039a12.988,12.988,0,0,1-1.193.593c-4.348,1.818-3.113,5.039-3.123,5.462a.522.522,0,0,1-.318.618c-1.073.408-1.234-2.441-.78-3.839.823-2.323,2.482-2.867,4.519-3.818a6.512,6.512,0,0,1,1.03-5.772.128.128,0,0,1,.017-.016.133.133,0,0,1,.17.006.134.134,0,0,1,.014.188,6.238,6.238,0,0,0-.989,5.48,17.978,17.978,0,0,0,2.309-1.307c-.42-2.168,2.126-4.927,2.245-5.055l.014-.013a.132.132,0,0,1,.173.009.134.134,0,0,1,.008.189c-.028.029-2.479,2.684-2.2,4.711.932-.616,1.866-1.3,2.789-2.023.083-1.406,2.451-4.039,2.559-4.158a.131.131,0,0,1,.187-.007A.134.134,0,0,1,932.639,1374.343Z" transform="translate(-919.541 -1369.733)" fill="#3c8f7c"/>
          </g>
          <g id="Group_16550" data-name="Group 16550" transform="translate(27.943 10.256)">
            <path id="Path_20237" data-name="Path 20237" d="M842.739,1267.327s-4.118.173-5.649-3.573,6.325-10.341,8.208-12.736,1.143-3.653,1.143-3.653,11.19,9.083,6.992,18.033C850.929,1270.738,846.728,1270.033,842.739,1267.327Z" transform="translate(-836.893 -1247.365)" fill="#50bfa5"/>
            <path id="Path_20238" data-name="Path 20238" d="M856.44,1262.574a12.353,12.353,0,0,0,.379,4.455,83.263,83.263,0,0,0,1.528-8.988c0,1.544-.088,3.513-.289,5.606,1.312.14,2.332-2.185,2.343-2.21a.135.135,0,0,1,.248.1c-.046.107-1.109,2.531-2.616,2.367-.1.946-.213,1.916-.358,2.881,2.348.239,4.3-2.885,4.32-2.918a.135.135,0,0,1,.184-.043.131.131,0,0,1,.046.181c-.087.141-2.072,3.319-4.591,3.042-.158,1.017-.347,2.026-.569,3,2.906.69,5.947-2.752,5.979-2.788.115-.132.32.041.2.172-.135.155-3.186,3.61-6.244,2.874a24.5,24.5,0,0,1-1.029,3.359c2.824,1.111,6.3-1.258,6.333-1.283a.137.137,0,0,1,.188.032.129.129,0,0,1-.031.184c-.156.108-3.639,2.486-6.59,1.313a12.927,12.927,0,0,1-.571,1.2c-2.3,4.115.666,5.886.919,6.225a.522.522,0,0,1,.132.682c-.592.983-2.479-1.156-2.985-2.537-.788-2.335.18-3.787,1.195-5.794a6.511,6.511,0,0,1-2.756-5.175.137.137,0,0,1,0-.024.133.133,0,0,1,.137-.1.135.135,0,0,1,.128.139,6.237,6.237,0,0,0,2.608,4.92,18.044,18.044,0,0,0,1.008-2.455c-1.67-1.445-1.373-5.188-1.358-5.361a.138.138,0,0,1,0-.019.132.132,0,0,1,.142-.1.134.134,0,0,1,.123.144c0,.04-.291,3.642,1.183,5.062.352-1.06.665-2.174.943-3.314-.8-1.157-.568-4.691-.557-4.85a.132.132,0,0,1,.143-.121A.134.134,0,0,1,856.44,1262.574Z" transform="translate(-848.349 -1255.566)" fill="#3c8f7c"/>
          </g>
        </g>
      </g>
    </g>
  </g>
</svg>
