<svg xmlns="http://www.w3.org/2000/svg" width="551.14" height="348.152" viewBox="0 0 551.14 348.152">
  <g id="Group_17353" data-name="Group 17353" transform="translate(-79.824 -20.532)">
    <g id="Group_17337" data-name="Group 17337" transform="translate(85.597 20.532)">
      <path id="Path_20488" data-name="Path 20488" d="M560.334,266.844c-10.821,18.5-25.44,34.458-42.849,47.875a205.985,205.985,0,0,1-20.823,14.119c-.718.434-1.444.86-2.171,1.277a252.171,252.171,0,0,1-37.313,17.617c-1.369.526-2.755,1.035-4.141,1.536-1.06.384-2.121.76-3.189,1.127-.092.033-.192.067-.292.1q-6.788,2.355-13.768,4.4c-1.52.451-3.039.885-4.575,1.3q-4.171,1.165-8.408,2.2-2.242.564-4.5,1.085a344.188,344.188,0,0,1-34.174,6.145C258.656,381.831,114.8,333.379,87.946,223.845c-8-32.612,5.5-52.559,24.372-65.141,9.385-6.262,20.114-10.7,30.174-13.968.434-.15.877-.292,1.311-.426.017-.008.033-.008.05-.017,8.625-2.73,16.69-4.617,22.927-6.07,0,0,.317-.735.977-2.079,7.523-15.363,59.205-110.887,183.56-115.5,78.191-2.906,82.591,54.1,113.35,79.319h.008c8.157,6.688,18.168,11.138,31.9,11.639h.008c.559.025,1.135.033,1.7.042h.008c.76.008,1.528.008,2.313-.008.384,0,.785-.017,1.177-.033.134,0,.259,0,.392-.008a.016.016,0,0,0,.025,0c.559-.017,1.119-.05,1.695-.083a.012.012,0,0,0,.017,0c.376-.017.76-.05,1.135-.075,1.01-.075,2.046-.167,3.1-.284h.008c.092,0,.184-.017.276-.025.827-.092,1.636-.167,2.446-.242h.008c1.645-.134,3.256-.217,4.851-.267h.008a72.436,72.436,0,0,1,24.889,3.407C588.037,129.623,601.638,196.208,560.334,266.844Z" transform="translate(-85.597 -20.532)" fill="#e0edf3"/>
    </g>
    <g id="Group_17340" data-name="Group 17340" transform="translate(353.529 290.757)">
      <g id="Group_17338" data-name="Group 17338" transform="translate(0 42.928)">
        <path id="Path_20489" data-name="Path 20489" d="M488.758,416.807c-1.52.451-3.039.885-4.575,1.3q-4.171,1.165-8.408,2.2-2.242.564-4.5,1.085a344.188,344.188,0,0,1-34.174,6.145c-12.415-4.125-24.038-11.722-30.6-24.672a55.69,55.69,0,0,1,15.045-5.068l.025.042a3.724,3.724,0,0,0,3.348,2.029,3.769,3.769,0,0,0,3.757-3.064,43.8,43.8,0,0,1,19.788-.167C462.691,399.5,477.2,407.839,488.758,416.807Z" transform="translate(-406.5 -395.596)" fill="#469e9d"/>
        <path id="Path_20490" data-name="Path 20490" d="M429.129,408.487c-2.288-.526-4.283-.985-4.751-1.135a1.249,1.249,0,0,0-1.57,1.87c.351.459.351.459,5.761,1.7,8.892,2.054,28.02,6.462,45.354,12.39q2.254-.526,4.5-1.085C460.038,415.609,438.705,410.692,429.129,408.487Z" transform="translate(-409.149 -397.513)" fill="#fff"/>
      </g>
      <g id="Group_17339" data-name="Group 17339" transform="translate(23.762)">
        <path id="Path_20491" data-name="Path 20491" d="M510.705,402.692c-1.06.384-2.121.76-3.189,1.127.067.033.125.075.192.109-.167,0-.326,0-.484-.008a.14.14,0,0,0-.042.017c-1.236.426-2.48.843-3.724,1.261q-4.947,1.641-10,3.123c-1.52.451-3.039.885-4.575,1.3-11.906-4.308-25.273-11-35.718-21.466-10.428-10.428-17.951-24.63-18.2-43.951a76.351,76.351,0,0,1,21.575,2.855l.125,4.317a3.716,3.716,0,0,0,6.663,2.146l2.572-3.381a83.632,83.632,0,0,1,39.217,31.727,102.594,102.594,0,0,1,9.31,17.266l.426,2.021C513.477,401.682,512.091,402.191,510.705,402.692Z" transform="translate(-434.96 -344.181)" fill="#55c0bf"/>
        <path id="Path_20492" data-name="Path 20492" d="M505.415,400.484c-29.891-17.55-56.909-43.826-58.312-45.6a1.254,1.254,0,0,0-2.338.835c.359,1.762,30.007,29.874,60.432,47.533q1.966,1.14,3.932,2.221c1.069-.367,2.129-.743,3.189-1.127Q508.85,402.509,505.415,400.484Z" transform="translate(-436.575 -345.838)" fill="#fff"/>
      </g>
    </g>
    <g id="Group_17343" data-name="Group 17343" transform="translate(113.962 162.536)">
      <path id="Path_20493" data-name="Path 20493" d="M592.083,190.61a7.823,7.823,0,1,0,7.823,7.823A7.834,7.834,0,0,0,592.083,190.61Zm0,13.142a5.319,5.319,0,1,1,5.319-5.319A5.327,5.327,0,0,1,592.083,203.752Z" transform="translate(-196.275 -190.61)" fill="#fff"/>
      <g id="Group_17341" data-name="Group 17341" transform="translate(425.551 31.069)">
        <path id="Path_20494" data-name="Path 20494" d="M636.63,240.555a1.253,1.253,0,0,1-1.252-1.252v-10.23a1.252,1.252,0,0,1,2.5,0V239.3A1.253,1.253,0,0,1,636.63,240.555Z" transform="translate(-630.264 -227.821)" fill="#fff"/>
        <path id="Path_20495" data-name="Path 20495" d="M640.734,236.452H630.505a1.252,1.252,0,0,1,0-2.5h10.229a1.252,1.252,0,0,1,0,2.5Z" transform="translate(-629.253 -228.832)" fill="#fff"/>
      </g>
      <path id="Path_20496" data-name="Path 20496" d="M186.824,271.432a7.823,7.823,0,1,0-8.5,11.689,7.688,7.688,0,0,0,1.845.217,7.821,7.821,0,0,0,6.654-11.906Zm-1.5,5.327a5.319,5.319,0,1,1-.635-4.016A5.292,5.292,0,0,1,185.322,276.758Z" transform="translate(-128.279 -203.334)" fill="#fff"/>
      <g id="Group_17342" data-name="Group 17342" transform="translate(0 60.182)">
        <path id="Path_20497" data-name="Path 20497" d="M128.191,273.917a1.253,1.253,0,0,1-1.07-.6l-5.344-8.722a1.253,1.253,0,0,1,2.136-1.31l5.344,8.723a1.252,1.252,0,0,1-1.066,1.907Z" transform="translate(-119.904 -262.69)" fill="#fff"/>
        <path id="Path_20498" data-name="Path 20498" d="M120.824,272.562a1.252,1.252,0,0,1-.655-2.32l8.722-5.344a1.253,1.253,0,1,1,1.309,2.136l-8.723,5.345A1.253,1.253,0,0,1,120.824,272.562Z" transform="translate(-119.57 -263.024)" fill="#fff"/>
      </g>
    </g>
    <g id="Group_17347" data-name="Group 17347" transform="translate(441.409 77.925)">
      <path id="Path_20505" data-name="Path 20505" d="M621.066,110.8s12.067-18.754,15.177-19.851S656.6,101.4,655.867,102.763s-10.564.98-10.564.98,1.074,3.688-1.686,4.681-8.154-.525-8.154-.525,1.031,2.235-1.679,3.4-9.035-.277-9.035-.277Z" transform="translate(-529.798 -89.536)" fill="#e0edf3"/>
      <path id="Path_20506" data-name="Path 20506" d="M543.665,132.2s-21.358-6.419-24.433-5.232-8.688,21.176-7.245,21.729,8.668-6.118,8.668-6.118,1.58,3.5,4.322,2.465,5.859-5.7,5.859-5.7.667,2.369,3.482,1.491,6.689-6.08,6.689-6.08Z" transform="translate(-511.754 -95.471)" fill="#fff"/>
      <g id="Group_17346" data-name="Group 17346" transform="translate(22.834)">
        <path id="Path_20507" data-name="Path 20507" d="M605.442,90.857l11.428,39.251a2.2,2.2,0,0,1-1.5,2.727L553.339,150.9a2.2,2.2,0,0,1-2.724-1.5l-11.428-39.25a2.147,2.147,0,0,1-.077-.8,2.187,2.187,0,0,1,1.57-1.93l62.035-18.06a2.2,2.2,0,0,1,2.365.784A2.153,2.153,0,0,1,605.442,90.857Z" transform="translate(-539.102 -89.272)" fill="#ffd100"/>
        <path id="Path_20508" data-name="Path 20508" d="M555.986,153.507l22.939-25.531a4.594,4.594,0,0,1,4.621-1.363l33.538,9.106-33.6-11.367a4.594,4.594,0,0,0-5.259,1.531Z" transform="translate(-541.889 -95.015)" fill="#da9135"/>
        <path id="Path_20509" data-name="Path 20509" d="M605.163,90.376l-26.043,33.445-39.926-14.238a2.23,2.23,0,0,1,1.5-2.161l62.035-18.06A2.239,2.239,0,0,1,605.163,90.376Z" transform="translate(-539.117 -89.274)" fill="#ffdf4f"/>
        <path id="Path_20510" data-name="Path 20510" d="M542.161,111.157l34.63,12.274a4.035,4.035,0,0,0,4.631-1.328l22.549-28.638L582.691,124.4a4.07,4.07,0,0,1-5.26,1.531Z" transform="translate(-539.607 -89.964)" fill="#da9135"/>
      </g>
    </g>
    <g id="Group_17349" data-name="Group 17349" transform="translate(176.386 281.307)">
      <path id="Path_20511" data-name="Path 20511" d="M274.146,372.838s15.724-4.867,18-4.009,6.54,15.577,5.478,15.994-6.435-4.463-6.435-4.463-1.145,2.594-3.175,1.845-4.358-4.169-4.358-4.169a1.853,1.853,0,0,1-2.561,1.122c-2.083-.63-4.974-4.447-4.974-4.447Z" transform="translate(-207.509 -338.783)" fill="#fff"/>
      <path id="Path_20512" data-name="Path 20512" d="M220.086,347.473s-9.019-13.769-11.321-14.56-14.965,7.84-14.413,8.838,7.8.66,7.8.66-.771,2.729,1.272,3.446,6.016-.437,6.016-.437a1.852,1.852,0,0,0,1.259,2.5c2.007.841,6.667-.259,6.667-.259Z" transform="translate(-194.335 -332.863)" fill="#fff"/>
      <g id="Group_17348" data-name="Group 17348" transform="translate(15.881 0.411)">
        <path id="Path_20513" data-name="Path 20513" d="M272.272,354.886,260.09,382.492a1.623,1.623,0,0,1-2.141.83l-43.629-19.253a1.623,1.623,0,0,1-.827-2.14l12.182-27.6a1.583,1.583,0,0,1,.334-.487,1.615,1.615,0,0,1,1.8-.345l43.628,19.253a1.621,1.621,0,0,1,.964,1.566A1.576,1.576,0,0,1,272.272,354.886Z" transform="translate(-213.356 -333.355)" fill="#ffd100"/>
        <path id="Path_20514" data-name="Path 20514" d="M216.2,366.928l25.086-3.533a3.391,3.391,0,0,1,3.258,1.424l14.626,21.072-13.584-22.376a3.39,3.39,0,0,0-3.7-1.632Z" transform="translate(-213.825 -338.049)" fill="#da9135"/>
        <path id="Path_20515" data-name="Path 20515" d="M274.823,354.477l-30.6,6.53-15.8-27a1.644,1.644,0,0,1,1.875-.507l43.628,19.253A1.652,1.652,0,0,1,274.823,354.477Z" transform="translate(-215.844 -333.358)" fill="#ffdf4f"/>
        <path id="Path_20516" data-name="Path 20516" d="M229.6,336.135l13.738,23.38a2.979,2.979,0,0,0,3.248,1.449l26.34-5.474-26.713,7.373a3,3,0,0,1-3.7-1.632Z" transform="translate(-216.037 -333.814)" fill="#da9135"/>
      </g>
    </g>
    <g id="Group_17461" data-name="Group 17461" transform="translate(540.68 169.35)">
      <path id="Path_20511-2" data-name="Path 20511" d="M274.146,372.838s15.724-4.867,18-4.009,6.54,15.577,5.478,15.994-6.435-4.463-6.435-4.463-1.145,2.594-3.175,1.845-4.358-4.169-4.358-4.169a1.853,1.853,0,0,1-2.561,1.122c-2.083-.63-4.974-4.447-4.974-4.447Z" transform="translate(-207.509 -338.783)" fill="#fff"/>
      <path id="Path_20512-2" data-name="Path 20512" d="M220.086,347.473s-9.019-13.769-11.321-14.56-14.965,7.84-14.413,8.838,7.8.66,7.8.66-.771,2.729,1.272,3.446,6.016-.437,6.016-.437a1.852,1.852,0,0,0,1.259,2.5c2.007.841,6.667-.259,6.667-.259Z" transform="translate(-194.335 -332.863)" fill="#fff"/>
      <g id="Group_17348-2" data-name="Group 17348" transform="translate(15.881 0.411)">
        <path id="Path_20513-2" data-name="Path 20513" d="M272.272,354.886,260.09,382.492a1.623,1.623,0,0,1-2.141.83l-43.629-19.253a1.623,1.623,0,0,1-.827-2.14l12.182-27.6a1.583,1.583,0,0,1,.334-.487,1.615,1.615,0,0,1,1.8-.345l43.628,19.253a1.621,1.621,0,0,1,.964,1.566A1.576,1.576,0,0,1,272.272,354.886Z" transform="translate(-213.356 -333.355)" fill="#ffd100"/>
        <path id="Path_20514-2" data-name="Path 20514" d="M216.2,366.928l25.086-3.533a3.391,3.391,0,0,1,3.258,1.424l14.626,21.072-13.584-22.376a3.39,3.39,0,0,0-3.7-1.632Z" transform="translate(-213.825 -338.049)" fill="#da9135"/>
        <path id="Path_20515-2" data-name="Path 20515" d="M274.823,354.477l-30.6,6.53-15.8-27a1.644,1.644,0,0,1,1.875-.507l43.628,19.253A1.652,1.652,0,0,1,274.823,354.477Z" transform="translate(-215.844 -333.358)" fill="#ffdf4f"/>
        <path id="Path_20516-2" data-name="Path 20516" d="M229.6,336.135l13.738,23.38a2.979,2.979,0,0,0,3.248,1.449l26.34-5.474-26.713,7.373a3,3,0,0,1-3.7-1.632Z" transform="translate(-216.037 -333.814)" fill="#da9135"/>
      </g>
    </g>
    <g id="Group_17350" data-name="Group 17350" transform="translate(222.873 53.786)">
      <path id="Path_20517" data-name="Path 20517" d="M253.863,134.353l96.781-71.8a11.115,11.115,0,0,1,13.307.047l95.313,71.757Z" transform="translate(-250.648 -60.36)" fill="#ffd100"/>
      <rect id="Rectangle_4354" data-name="Rectangle 4354" width="211.832" height="138.992" rx="8.083" transform="translate(0 73.055)" fill="#ffd100"/>
      <path id="Path_20518" data-name="Path 20518" d="M454.065,158.87,431.806,176.1l-.292.225-18.06,13.977L400.412,200.4l-27.16,21.024-5.227,4.049-2.906-1.77a14.1,14.1,0,0,0-14.787.05l-2.889,1.8-4.575-3.523-28.1-21.625-13.117-10.094-18.151-13.977-3.323-2.555-19.362-14.9Z" transform="translate(-251.796 -76.621)" fill="#fff"/>
      <path id="Path_20519" data-name="Path 20519" d="M456.161,290.257l-88.135-53.845-2.906-1.77a14.1,14.1,0,0,0-14.787.05l-2.889,1.8-86.624,53.77,82.049-57.293,7.214-5.035a14.077,14.077,0,0,1,16.816,0l6.354,4.434Z" transform="translate(-251.796 -87.56)" fill="#da9135"/>
      <rect id="Rectangle_4355" data-name="Rectangle 4355" width="193.247" height="62.926" transform="translate(9.02 19.326)" fill="#fff"/>
      <rect id="Rectangle_4356" data-name="Rectangle 4356" width="151.627" height="10.092" transform="translate(28.384 41.487)" fill="#e0edf3"/>
      <rect id="Rectangle_4357" data-name="Rectangle 4357" width="151.627" height="10.092" transform="translate(28.384 65.553)" fill="#e0edf3"/>
      <path id="Path_20520" data-name="Path 20520" d="M435.634,167.7v9.861l-.292.225H287.333l-3.323-2.555V167.7Z" transform="translate(-255.624 -78.079)" fill="#e0edf3"/>
      <path id="Path_20521" data-name="Path 20521" d="M421.527,196.52l-13.042,10.094H322.847L309.73,196.52Z" transform="translate(-259.87 -82.836)" fill="#e0edf3"/>
    </g>
    <g id="Group_17351" data-name="Group 17351" transform="translate(358.656 208.093)">
      <path id="Path_20522" data-name="Path 20522" d="M528.7,270.413c7.14-2.456,3.331-14.757,13.489-22.289,10.724-7.952,14.438,2.688,14.438,2.688s9.038-6.383,18.415,1.92c5.793,5.13,12.87,17.709,3.683,35.064-7.967,15.049,11.749,21.3-1.72,30.048-11.523,7.483-43.733-5.6-43.733-5.6S496.071,281.633,528.7,270.413Z" transform="translate(-429.585 -245.174)" fill="#373b54"/>
      <rect id="Rectangle_4358" data-name="Rectangle 4358" width="31.268" height="15.732" transform="translate(103.242 70.88) rotate(-78.385)" fill="#fbaf7b"/>
      <path id="Path_20523" data-name="Path 20523" d="M558.428,296.6l-2.245,10.923c-5.048,3.339-10.833,7.155-17.286,5.957l3.851-18.73c.463-.377.924-.74,1.409-1.083Z" transform="translate(-433.481 -253.179)" fill="#fb8862"/>
      <path id="Path_20524" data-name="Path 20524" d="M549.007,255.9S530.1,271.52,531.81,293a4.225,4.225,0,0,0,2.28,3.432c4.717,2.414,16.48,7.624,21.733,2.615,6.653-6.342,20.082-23.042,14.787-30.6S549.007,255.9,549.007,255.9Z" transform="translate(-432.293 -246.945)" fill="#fbaf7b"/>
      <path id="Path_20525" data-name="Path 20525" d="M565.137,290.536s11.55-2,13.674,5.533-14.862,9.847-15.185,3.037S565.137,290.536,565.137,290.536Z" transform="translate(-437.557 -252.622)" fill="#fbaf7b"/>
      <path id="Path_20526" data-name="Path 20526" d="M540.974,266.315s4.332-7.382,6.515-3.919,3.028,8.763,14.02,7.311c8.348-1.1,2.392,17.327,2.392,17.327s5.174-3.366,9.256-.253c0,0,6.83-19.477.328-24.111s-22.878-11.663-26.067-8.538S540.974,266.315,540.974,266.315Z" transform="translate(-433.824 -246.525)" fill="#373b54"/>
      <path id="Path_20527" data-name="Path 20527" d="M544.765,277.228c-.652,1-1.562,1.555-2.034,1.246s-.324-1.366.328-2.362,1.562-1.555,2.033-1.247S545.417,276.231,544.765,277.228Z" transform="translate(-434.068 -250.061)" fill="#373b54"/>
      <path id="Path_20528" data-name="Path 20528" d="M557.419,285.675c-.652,1-1.562,1.555-2.033,1.247s-.325-1.366.327-2.363,1.562-1.555,2.034-1.247S558.071,284.678,557.419,285.675Z" transform="translate(-436.157 -251.455)" fill="#373b54"/>
      <path id="Path_20529" data-name="Path 20529" d="M540.564,290.32c.306.106,10.235,3.978,10.235,3.978s-10.433,10.791-9.929-3.872Z" transform="translate(-433.756 -252.626)" fill="#fff"/>
      <path id="Path_20530" data-name="Path 20530" d="M588.7,364.2a206.006,206.006,0,0,1-20.823,14.119c-.718.434-1.444.86-2.171,1.277a252.179,252.179,0,0,1-37.313,17.617c-1.369.526-2.755,1.035-4.141,1.536-1.06.384-2.121.76-3.189,1.127.067.033.125.075.192.109-.167,0-.326,0-.484-.008a.14.14,0,0,0-.042.017c-1.236.426-2.48.843-3.724,1.261l.125-3.6.217-2.772,1.311-16.958,1.01-12.975.635-8.141.776-10.086,1.069-16.916c.6-3.974,4.826-6.563,8.224-8.024a29.821,29.821,0,0,1,4.417-1.511h.008c.058.259,2.73,12.29,15.647,1.328l.134.033,9.585,2.171a11.5,11.5,0,0,1,6.68,4.367c.376.509,1.428,2.037,2.906,4.275C574.21,339.19,582.626,352.448,588.7,364.2Z" transform="translate(-429.866 -257.57)" fill="#d64d8b"/>
      <path id="Path_20531" data-name="Path 20531" d="M521.763,310.544s-32.394-9.5-36.344-14.314-28.164-34.9-28.164-34.9l-19.171,13.121,29.177,48.545c14.672,15.666,48.647,27.868,50.282,27.41S521.763,310.544,521.763,310.544Z" transform="translate(-416.84 -247.841)" fill="#d64d8b"/>
      <path id="Path_20532" data-name="Path 20532" d="M433.884,272.118l-20.539-13.669a1.575,1.575,0,0,1,.214-2.744c4.473-2.048,12.329-3.852,14.313-3.637,2.67.287,13.447,2.848,13.447,2.848l-.986-4.828a2.355,2.355,0,0,1,1.71-2.749h0a4.061,4.061,0,0,1,4.414,1.687l6.6,9.972Z" transform="translate(-412.64 -245.51)" fill="#fbaf7b"/>
      <path id="Path_20533" data-name="Path 20533" d="M566.294,298.944s3.448,1.223,3.545-.961c.055-1.237-1.823-1.607-1.823-1.607s6.211-2.714,7.6.417S571.722,303.6,566.294,298.944Z" transform="translate(-438.003 -253.446)" fill="#fb8862"/>
      <path id="Path_20534" data-name="Path 20534" d="M563.886,343.69a1.253,1.253,0,0,1-1.252-1.234c-.155-10.456,4.294-13.572,4.484-13.7a1.252,1.252,0,0,1,1.412,2.067c-.092.069-3.523,2.722-3.391,11.594a1.255,1.255,0,0,1-1.234,1.272Z" transform="translate(-437.398 -258.936)" fill="#a83d6d"/>
      <path id="Path_20535" data-name="Path 20535" d="M575.434,383.159c-.718.434-1.444.86-2.171,1.277-4.926-11.7-10.453-24.889-10.453-33.564a1.252,1.252,0,1,1,2.5,0C565.315,358.963,570.633,371.754,575.434,383.159Z" transform="translate(-437.428 -262.415)" fill="#a83d6d"/>
    </g>
    <g id="Group_17352" data-name="Group 17352" transform="translate(292.18 228.449)">
      <circle id="Ellipse_153" data-name="Ellipse 153" cx="31.003" cy="31.003" r="31.003" transform="matrix(0.233, -0.972, 0.972, 0.233, 0, 60.292)" fill="#d64d8b"/>
      <text id="_1" data-name="1" transform="translate(28.606 50.786)" fill="#fff" font-size="35" font-family="Helvetica"><tspan x="0" y="0">1</tspan></text>
    </g>
    <g id="Group_17354" data-name="Group 17354" transform="translate(-387.176 -2285.632)">
      <g id="Group_17460" data-name="Group 17460" transform="translate(467 2350.746)">
        <g id="Device" transform="translate(11.5 0)">
          <g id="Group_17408" data-name="Group 17408" transform="translate(0)">
            <g id="Group_17407" data-name="Group 17407">
              <g id="Group_17365" data-name="Group 17365">
                <g id="Group_17364" data-name="Group 17364">
                  <g id="Group_17363" data-name="Group 17363">
                    <g id="Group_17362" data-name="Group 17362">
                      <g id="Group_17357" data-name="Group 17357">
                        <g id="Group_17356" data-name="Group 17356">
                          <g id="Group_17355" data-name="Group 17355">
                            <g id="Group_17354-2" data-name="Group 17354">
                              <path id="Path_20536" data-name="Path 20536" d="M279.752,225.894l-66.892-.039A14.571,14.571,0,0,1,198.3,211.28l.033-167.7a14.571,14.571,0,0,1,14.58-14.568l66.892.039a14.572,14.572,0,0,1,14.563,14.574l-.033,167.7A14.571,14.571,0,0,1,279.752,225.894Z" transform="translate(-198.298 -29.013)" fill="#455a64"/>
                            </g>
                          </g>
                        </g>
                      </g>
                      <g id="Group_17361" data-name="Group 17361" transform="translate(4.432 5.931)">
                        <g id="Group_17360" data-name="Group 17360">
                          <g id="Group_17359" data-name="Group 17359">
                            <g id="Group_17358" data-name="Group 17358">
                              <path id="Path_20537" data-name="Path 20537" d="M282.82,39.116l-12.97-.008A3.222,3.222,0,0,0,266.7,42.4v2.353a3.221,3.221,0,0,1-3.149,3.29l-25.28-.015a3.226,3.226,0,0,1-3.149-3.294V42.38a3.225,3.225,0,0,0-3.149-3.294l-4.561,0-11.351-.006a10.205,10.205,0,0,0-10.21,10.2l-.032,163.686a10.2,10.2,0,0,0,10.2,10.207l66.758.039a10.205,10.205,0,0,0,10.211-10.2l.032-163.687A10.2,10.2,0,0,0,282.82,39.116Z" transform="translate(-205.819 -39.077)" fill="#fafafa"/>
                            </g>
                          </g>
                        </g>
                      </g>
                    </g>
                  </g>
                </g>
              </g>
              <g id="Group_17400" data-name="Group 17400" transform="translate(69.095 9.616)">
                <g id="Group_17378" data-name="Group 17378" transform="translate(0 0.182)">
                  <g id="Group_17368" data-name="Group 17368" transform="translate(0 1.482)">
                    <g id="Group_17367" data-name="Group 17367">
                      <g id="Group_17366" data-name="Group 17366">
                        <rect id="Rectangle_4359" data-name="Rectangle 4359" width="0.741" height="1.039" fill="#263238"/>
                      </g>
                    </g>
                  </g>
                  <g id="Group_17371" data-name="Group 17371" transform="translate(1.207 1.019)">
                    <g id="Group_17370" data-name="Group 17370">
                      <g id="Group_17369" data-name="Group 17369">
                        <rect id="Rectangle_4360" data-name="Rectangle 4360" width="0.741" height="1.502" fill="#263238"/>
                      </g>
                    </g>
                  </g>
                  <g id="Group_17374" data-name="Group 17374" transform="translate(2.413 0.671)">
                    <g id="Group_17373" data-name="Group 17373">
                      <g id="Group_17372" data-name="Group 17372">
                        <rect id="Rectangle_4361" data-name="Rectangle 4361" width="0.741" height="1.85" fill="#263238"/>
                      </g>
                    </g>
                  </g>
                  <g id="Group_17377" data-name="Group 17377" transform="translate(3.62)">
                    <g id="Group_17376" data-name="Group 17376">
                      <g id="Group_17375" data-name="Group 17375">
                        <rect id="Rectangle_4362" data-name="Rectangle 4362" width="0.741" height="2.521" fill="#263238"/>
                      </g>
                    </g>
                  </g>
                </g>
                <g id="Group_17385" data-name="Group 17385" transform="translate(11.317 0.372)">
                  <g id="Group_17381" data-name="Group 17381">
                    <g id="Group_17380" data-name="Group 17380">
                      <g id="Group_17379" data-name="Group 17379">
                        <path id="Path_20538" data-name="Path 20538" d="M338.73,48.343h-3.721a.267.267,0,0,1-.267-.266v-1.85a.266.266,0,0,1,.265-.266h3.723a.069.069,0,0,1,.048.02.067.067,0,0,1,.019.048v.609h.4a.068.068,0,0,1,.068.068V47.6a.068.068,0,0,1-.068.068h-.4v.61A.068.068,0,0,1,338.73,48.343Zm-.068-2.247h-3.655a.128.128,0,0,0-.128.13v1.85a.13.13,0,0,0,.13.13h3.653V47.6a.068.068,0,0,1,.068-.068h.4v-.755h-.4a.068.068,0,0,1-.068-.068Z" transform="translate(-334.742 -45.96)" fill="#263238"/>
                      </g>
                    </g>
                  </g>
                  <g id="Group_17384" data-name="Group 17384" transform="translate(0.44 0.44)">
                    <g id="Group_17383" data-name="Group 17383">
                      <g id="Group_17382" data-name="Group 17382">
                        <path id="Path_20539" data-name="Path 20539" d="M335.489,48.21v-1.5h3.176v1.5Z" transform="translate(-335.489 -46.707)" fill="#263238"/>
                      </g>
                    </g>
                  </g>
                </g>
                <g id="Group_17399" data-name="Group 17399" transform="translate(5.598)">
                  <g id="Group_17388" data-name="Group 17388" transform="translate(1.767 2.341)">
                    <g id="Group_17387" data-name="Group 17387">
                      <g id="Group_17386" data-name="Group 17386">
                        <path id="Path_20540" data-name="Path 20540" d="M328.58,49.573a.272.272,0,1,0-.272.272A.272.272,0,0,0,328.58,49.573Z" transform="translate(-328.036 -49.301)" fill="#263238"/>
                      </g>
                    </g>
                  </g>
                  <g id="Group_17398" data-name="Group 17398">
                    <g id="Group_17391" data-name="Group 17391" transform="translate(1.112 1.573)">
                      <g id="Group_17390" data-name="Group 17390">
                        <g id="Group_17389" data-name="Group 17389">
                          <path id="Path_20541" data-name="Path 20541" d="M326.924,48.382l.347.347a.82.82,0,0,1,1.16,0l.347-.347a1.311,1.311,0,0,0-1.855,0Z" transform="translate(-326.924 -47.998)" fill="#263238"/>
                        </g>
                      </g>
                    </g>
                    <g id="Group_17394" data-name="Group 17394" transform="translate(0.565 0.799)">
                      <g id="Group_17393" data-name="Group 17393">
                        <g id="Group_17392" data-name="Group 17392">
                          <path id="Path_20542" data-name="Path 20542" d="M327.47,46.685A2.079,2.079,0,0,0,326,47.3l.347.347a1.591,1.591,0,0,1,2.254,0l.347-.347A2.08,2.08,0,0,0,327.47,46.685Z" transform="translate(-325.996 -46.685)" fill="#263238"/>
                        </g>
                      </g>
                    </g>
                    <g id="Group_17397" data-name="Group 17397">
                      <g id="Group_17396" data-name="Group 17396">
                        <g id="Group_17395" data-name="Group 17395">
                          <path id="Path_20543" data-name="Path 20543" d="M325.038,46.175l.347.347a2.39,2.39,0,0,1,3.383,0l.347-.347a2.879,2.879,0,0,0-4.078,0Z" transform="translate(-325.038 -45.329)" fill="#263238"/>
                        </g>
                      </g>
                    </g>
                  </g>
                </g>
              </g>
              <g id="Group_17403" data-name="Group 17403" transform="translate(47.447 23.733)">
                <g id="Group_17401" data-name="Group 17401" transform="translate(0 2.601)">
                  <rect id="Rectangle_4363" data-name="Rectangle 4363" width="5.609" height="4.17" rx="0.946" fill="#263238"/>
                </g>
                <g id="Group_17402" data-name="Group 17402" transform="translate(0.648)">
                  <path id="Path_20544" data-name="Path 20544" d="M280.5,72.158h-.589v-.7a2.156,2.156,0,1,1,4.312,0v.445h-.589v-.445a1.567,1.567,0,1,0-3.134,0Z" transform="translate(-279.906 -69.283)" fill="#263238"/>
                </g>
              </g>
              <g id="Group_17404" data-name="Group 17404" transform="translate(5.134 44.896)">
                <path id="Path_20545" data-name="Path 20545" d="M207.01,189.879a30.054,30.054,0,0,1,15.428-25.914c6.506-3.518,14.039-4.453,21.247-6.108s14.678-4.389,19.137-10.29c6.024-7.973,4.873-19.306,9.219-28.3a25.463,25.463,0,0,1,21.611-14.068V242.216a8.334,8.334,0,0,1-8.333,8.333H215.343a8.333,8.333,0,0,1-8.333-8.333Z" transform="translate(-207.01 -105.194)" fill="#ebebeb"/>
              </g>
              <g id="Group_17405" data-name="Group 17405" transform="translate(19.873 50.102)">
                <path id="Path_20546" data-name="Path 20546" d="M232.019,122.139c0-5.081,2.666-8.112,6.358-8.112s6.38,3.031,6.38,8.112-2.689,8.112-6.38,8.112S232.019,127.221,232.019,122.139Zm11.052,0c0-4.262-1.914-6.608-4.694-6.608s-4.695,2.347-4.695,6.608,1.914,6.608,4.695,6.608S243.071,126.4,243.071,122.139Z" transform="translate(-232.019 -114.027)" fill="#263238"/>
                <path id="Path_20547" data-name="Path 20547" d="M268.787,122c0,5.424-2.962,8.249-7.292,8.249a7.318,7.318,0,0,1-3.783-.866l.661-1.322a5.593,5.593,0,0,0,3.1.752c3.441,0,5.651-2.211,5.651-6.54,0-.364-.022-.82-.068-1.3a5.1,5.1,0,0,1-4.877,2.735c-3.168,0-5.378-1.869-5.378-4.785,0-2.985,2.348-4.9,5.447-4.9C266.485,114.027,268.787,116.967,268.787,122Zm-2.256-3.168c0-1.754-1.458-3.418-4.216-3.418-2.3,0-3.9,1.344-3.9,3.464,0,2.1,1.549,3.441,4.01,3.441C264.867,122.321,266.531,120.817,266.531,118.835Z" transform="translate(-242.196 -114.027)" fill="#263238"/>
                <path id="Path_20548" data-name="Path 20548" d="M281.2,122.063a1.207,1.207,0,0,1,1.208-1.231,1.226,1.226,0,0,1,1.231,1.231,1.245,1.245,0,0,1-1.231,1.254A1.227,1.227,0,0,1,281.2,122.063Zm0,9.708a1.207,1.207,0,0,1,1.208-1.231,1.225,1.225,0,0,1,1.231,1.231,1.245,1.245,0,0,1-1.231,1.253A1.226,1.226,0,0,1,281.2,131.77Z" transform="translate(-252.214 -116.822)" fill="#263238"/>
                <path id="Path_20549" data-name="Path 20549" d="M299.707,128.656v1.459H288.518v-1.162l6.631-6.495c1.8-1.777,2.142-2.848,2.142-3.942,0-1.846-1.3-2.985-3.738-2.985a5.417,5.417,0,0,0-4.352,1.777l-1.162-1a7.167,7.167,0,0,1,5.651-2.278c3.236,0,5.286,1.641,5.286,4.307,0,1.527-.479,2.894-2.621,4.991l-5.423,5.332Z" transform="translate(-255.025 -114.027)" fill="#263238"/>
                <path id="Path_20550" data-name="Path 20550" d="M311.159,122.139c0-5.081,2.666-8.112,6.358-8.112s6.38,3.031,6.38,8.112-2.689,8.112-6.38,8.112S311.159,127.221,311.159,122.139Zm11.052,0c0-4.262-1.914-6.608-4.694-6.608s-4.695,2.347-4.695,6.608,1.914,6.608,4.695,6.608S322.211,126.4,322.211,122.139Z" transform="translate(-264.519 -114.027)" fill="#263238"/>
              </g>
              <g id="Group_17406" data-name="Group 17406" transform="translate(7.142 21.864)">
                <circle id="Ellipse_154" data-name="Ellipse 154" cx="11.516" cy="11.516" r="11.516" transform="matrix(0.21, -0.978, 0.978, 0.21, 0, 22.517)" fill="#e0e0e0"/>
              </g>
            </g>
          </g>
        </g>
        <g id="Notifications" transform="translate(0 76.052)">
          <g id="Group_17425" data-name="Group 17425">
            <g id="Group_17412" data-name="Group 17412">
              <g id="Group_17409" data-name="Group 17409" transform="translate(0.156 0.153)">
                <rect id="Rectangle_4364" data-name="Rectangle 4364" width="119.599" height="38.343" rx="6.943" fill="#fff"/>
              </g>
              <g id="Group_17411" data-name="Group 17411">
                <g id="Group_17410" data-name="Group 17410">
                  <path id="Path_20551" data-name="Path 20551" d="M294.447,196.555a7.416,7.416,0,0,0,.79-.094,4.084,4.084,0,0,0,2.027-1.076,4.014,4.014,0,0,0,.943-1.411,4.839,4.839,0,0,0,.287-2.028c0-1.505-.009-3.24-.014-5.193-.008-3.909-.016-8.689-.027-14.238q-.005-4.163-.012-8.89a9.542,9.542,0,0,0-.143-2.355,3.984,3.984,0,0,0-3.493-2.933c-.833-.035-1.71-.008-2.578-.016l-109.187.045a3.935,3.935,0,0,0-3.919,3.494c-.054.624-.015,1.31-.027,1.96q0,3.949,0,7.844,0,7.788,0,15.335,0,1.886,0,3.754c0,.62-.008,1.249.007,1.858a3.924,3.924,0,0,0,3.23,3.731,11.74,11.74,0,0,0,1.8.067h1.818l14.19,0,49.088.033,33.093.049,9,.029,2.34.015c.527,0,.8.015.8.015s-.27.011-.8.016l-2.34.015-9,.028-33.093.049-49.088.033-14.19.005h-1.818a11.834,11.834,0,0,1-1.85-.071,4.22,4.22,0,0,1-3.475-4.011c-.016-.63,0-1.244-.008-1.869q0-1.868,0-3.754,0-7.541,0-15.335,0-3.894,0-7.844c.013-.665-.028-1.3.029-1.994a4.245,4.245,0,0,1,4.224-3.766l109.188.045c.877.009,1.727-.017,2.6.022a4.191,4.191,0,0,1,3.669,3.092,4.422,4.422,0,0,1,.146,1.218q0,.6,0,1.189-.007,4.72-.012,8.89c-.011,5.549-.019,10.329-.027,14.238-.005,1.953-.01,3.688-.014,5.193a4.912,4.912,0,0,1-.306,2.057,4.114,4.114,0,0,1-3.035,2.489,3.655,3.655,0,0,1-.595.06C294.515,196.557,294.447,196.555,294.447,196.555Z" transform="translate(-178.784 -158.059)" fill="#263238"/>
                </g>
              </g>
            </g>
            <g id="Group_17415" data-name="Group 17415" transform="translate(110.996 4.894)">
              <g id="Group_17413" data-name="Group 17413" transform="translate(0 0.012)">
                <path id="Path_20552" data-name="Path 20552" d="M367.272,169.5a.147.147,0,0,1-.1-.254l2.947-2.823a.147.147,0,1,1,.2.213l-2.947,2.822A.144.144,0,0,1,367.272,169.5Z" transform="translate(-367.124 -166.384)" fill="#263238"/>
              </g>
              <g id="Group_17414" data-name="Group 17414" transform="translate(0.015)">
                <path id="Path_20553" data-name="Path 20553" d="M370.215,169.505a.147.147,0,0,1-.1-.042l-2.917-2.847a.147.147,0,0,1,.206-.21l2.917,2.847a.147.147,0,0,1-.1.253Z" transform="translate(-367.15 -166.364)" fill="#263238"/>
              </g>
            </g>
            <g id="Group_17418" data-name="Group 17418" transform="translate(8.791 8.895)">
              <g id="Group_17416" data-name="Group 17416">
                <path id="Path_20554" data-name="Path 20554" d="M210.84,191.032l-1.2-1.7a6.089,6.089,0,0,1-1.114-3.51l0-3.827a6.246,6.246,0,0,0-5.3-6.172v-1.827a.841.841,0,0,0-.841-.84h0a.841.841,0,0,0-.84.841v1.8a6.246,6.246,0,0,0-5.513,6.2l0,3.965a6.092,6.092,0,0,1-1.3,3.759l-1.033,1.317Z" transform="translate(-193.701 -173.153)" fill="#ff725e"/>
              </g>
              <g id="Group_17417" data-name="Group 17417" transform="translate(6.185 19.059)">
                <path id="Path_20555" data-name="Path 20555" d="M205.678,207.1a2.71,2.71,0,0,0,2.8-.482,2.627,2.627,0,0,0,.708-1.086l-4.992-.035A2.715,2.715,0,0,0,205.678,207.1Z" transform="translate(-204.196 -205.492)" fill="#ff725e"/>
              </g>
            </g>
            <g id="Group_17420" data-name="Group 17420" transform="translate(33.371 12.954)">
              <g id="Group_17419" data-name="Group 17419">
                <path id="Path_20556" data-name="Path 20556" d="M295.252,180.193c0,.085-13.4.153-29.92.153s-29.923-.068-29.923-.153,13.395-.154,29.923-.154S295.252,180.108,295.252,180.193Z" transform="translate(-235.409 -180.039)" fill="#263238"/>
              </g>
            </g>
            <g id="Group_17422" data-name="Group 17422" transform="translate(33.371 20.196)">
              <g id="Group_17421" data-name="Group 17421">
                <path id="Path_20557" data-name="Path 20557" d="M309.354,192.481c0,.085-16.555.154-36.971.154s-36.974-.069-36.974-.154,16.551-.153,36.974-.153S309.354,192.4,309.354,192.481Z" transform="translate(-235.409 -192.328)" fill="#e0e0e0"/>
              </g>
            </g>
            <g id="Group_17424" data-name="Group 17424" transform="translate(33.371 24.533)">
              <g id="Group_17423" data-name="Group 17423">
                <path id="Path_20558" data-name="Path 20558" d="M309.354,199.841c0,.084-16.555.153-36.971.153s-36.974-.069-36.974-.153,16.551-.154,36.974-.154S309.354,199.756,309.354,199.841Z" transform="translate(-235.409 -199.687)" fill="#e0e0e0"/>
              </g>
            </g>
          </g>
          <g id="Group_17442" data-name="Group 17442" transform="translate(18.292 44.328)">
            <g id="Group_17429" data-name="Group 17429">
              <g id="Group_17426" data-name="Group 17426" transform="translate(0.155 0.154)">
                <rect id="Rectangle_4365" data-name="Rectangle 4365" width="82.173" height="26.344" rx="6.943" fill="#fafafa"/>
              </g>
              <g id="Group_17428" data-name="Group 17428">
                <g id="Group_17427" data-name="Group 17427">
                  <path id="Path_20559" data-name="Path 20559" d="M288.059,259.774c0-.011.185-.007.539-.055a3.891,3.891,0,0,0,1.483-.518,4.048,4.048,0,0,0,2.014-3.465q0-.883,0-1.879c-.007-2.659-.016-5.909-.026-9.681q-.006-2.831-.012-6.045a5.991,5.991,0,0,0-.13-1.592,3.982,3.982,0,0,0-3.614-2.987l-74.234.032a3.942,3.942,0,0,0-3.816,2.961,4.575,4.575,0,0,0-.128,1.291v3.993q0,5.3,0,10.427,0,1.282,0,2.552c0,.42-.011.854.019,1.252a4.278,4.278,0,0,0,.3,1.173,3.979,3.979,0,0,0,3.837,2.393l9.648.005,33.377.033,22.5.049,6.118.029,1.591.015c.358,0,.542.015.542.015s-.183.011-.542.016l-1.591.015-6.118.029-22.5.048-33.377.033-9.648.005a4.274,4.274,0,0,1-4.111-2.57,4.58,4.58,0,0,1-.322-1.262c-.032-.443-.016-.855-.021-1.281q0-1.27,0-2.552,0-5.127,0-10.427,0-1.324,0-2.657v-1.336a4.876,4.876,0,0,1,.137-1.367,4.216,4.216,0,0,1,1.5-2.294,4.26,4.26,0,0,1,2.61-.9l74.248.058a4.187,4.187,0,0,1,3.8,3.154,6.169,6.169,0,0,1,.131,1.641q-.006,3.209-.012,6.045c-.01,3.772-.019,7.022-.026,9.681q-.005,1-.01,1.881a4.117,4.117,0,0,1-2.089,3.518,3.819,3.819,0,0,1-1.51.5A3.326,3.326,0,0,1,288.059,259.774Z" transform="translate(-209.822 -233.276)" fill="#263238"/>
                </g>
              </g>
            </g>
            <g id="Group_17432" data-name="Group 17432" transform="translate(76.264 3.365)">
              <g id="Group_17430" data-name="Group 17430" transform="translate(0 0.008)">
                <path id="Path_20560" data-name="Path 20560" d="M339.376,241.234a.147.147,0,0,1-.1-.253l2.025-1.94a.147.147,0,0,1,.2.213l-2.024,1.939A.147.147,0,0,1,339.376,241.234Z" transform="translate(-339.229 -239)" fill="#263238"/>
              </g>
              <g id="Group_17431" data-name="Group 17431" transform="translate(0.01)">
                <path id="Path_20561" data-name="Path 20561" d="M341.4,241.237a.148.148,0,0,1-.1-.042l-2-1.956a.147.147,0,0,1,.206-.21l2,1.956a.148.148,0,0,1-.1.253Z" transform="translate(-339.247 -238.986)" fill="#263238"/>
              </g>
            </g>
            <g id="Group_17435" data-name="Group 17435" transform="translate(6.088 6.16)">
              <g id="Group_17433" data-name="Group 17433">
                <path id="Path_20562" data-name="Path 20562" d="M231.929,256.013l-.826-1.17a4.176,4.176,0,0,1-.766-2.411V249.8a4.292,4.292,0,0,0-3.639-4.24v-1.255a.578.578,0,0,0-.578-.578h0a.578.578,0,0,0-.578.578v1.236a4.291,4.291,0,0,0-3.788,4.262v2.725a4.182,4.182,0,0,1-.892,2.582l-.71.905Z" transform="translate(-220.153 -243.729)" fill="#455a64"/>
              </g>
              <g id="Group_17434" data-name="Group 17434" transform="translate(4.25 13.095)">
                <path id="Path_20563" data-name="Path 20563" d="M228.382,267.049a1.862,1.862,0,0,0,1.926-.331,1.8,1.8,0,0,0,.486-.746l-3.43-.024A1.864,1.864,0,0,0,228.382,267.049Z" transform="translate(-227.364 -265.948)" fill="#455a64"/>
              </g>
            </g>
            <g id="Group_17437" data-name="Group 17437" transform="translate(22.976 8.9)">
              <g id="Group_17436" data-name="Group 17436">
                <path id="Path_20564" data-name="Path 20564" d="M289.926,248.532c0,.085-9.205.153-20.557.153s-20.56-.068-20.56-.153,9.2-.154,20.56-.154S289.926,248.447,289.926,248.532Z" transform="translate(-248.809 -248.378)" fill="#263238"/>
              </g>
            </g>
            <g id="Group_17439" data-name="Group 17439" transform="translate(22.976 13.877)">
              <g id="Group_17438" data-name="Group 17438">
                <path id="Path_20565" data-name="Path 20565" d="M299.615,256.975c0,.085-11.374.153-25.4.153s-25.4-.068-25.4-.153,11.372-.153,25.4-.153S299.615,256.89,299.615,256.975Z" transform="translate(-248.809 -256.822)" fill="#e0e0e0"/>
              </g>
            </g>
            <g id="Group_17441" data-name="Group 17441" transform="translate(22.976 16.856)">
              <g id="Group_17440" data-name="Group 17440">
                <path id="Path_20566" data-name="Path 20566" d="M299.615,262.031c0,.085-11.374.154-25.4.154s-25.4-.069-25.4-.154,11.372-.153,25.4-.153S299.615,261.947,299.615,262.031Z" transform="translate(-248.809 -261.878)" fill="#e0e0e0"/>
              </g>
            </g>
          </g>
          <g id="Group_17459" data-name="Group 17459" transform="translate(18.602 74.772)">
            <g id="Group_17446" data-name="Group 17446">
              <g id="Group_17443" data-name="Group 17443" transform="translate(0.154 0.154)">
                <rect id="Rectangle_4366" data-name="Rectangle 4366" width="81.553" height="26.146" rx="6.943" fill="#fafafa"/>
              </g>
              <g id="Group_17445" data-name="Group 17445">
                <g id="Group_17444" data-name="Group 17444">
                  <path id="Path_20567" data-name="Path 20567" d="M287.964,311.232c0-.011.183-.008.534-.055a3.913,3.913,0,0,0,1.473-.51A4.052,4.052,0,0,0,292,307.242q0-.876,0-1.864c-.007-2.638-.016-5.863-.026-9.606q-.005-2.809-.012-6a5.953,5.953,0,0,0-.13-1.579,3.985,3.985,0,0,0-3.575-2.986l-73.654.03a3.953,3.953,0,0,0-3.806,2.922,4.3,4.3,0,0,0-.137,1.277V293.4q0,5.255,0,10.346,0,1.272,0,2.532c0,.418-.01.847.019,1.242a4.3,4.3,0,0,0,.3,1.165,3.972,3.972,0,0,0,3.795,2.4l9.573.005,33.117.033,22.327.049,6.07.029,1.578.015c.356.005.538.016.538.016s-.182.011-.538.016l-1.578.015-6.07.028-22.327.049-33.117.033-9.573.005a4.267,4.267,0,0,1-4.068-2.575,4.606,4.606,0,0,1-.319-1.252c-.032-.439-.018-.849-.021-1.271q0-1.261,0-2.532,0-5.087,0-10.346v-3.962a4.652,4.652,0,0,1,.147-1.356,4.262,4.262,0,0,1,4.1-3.151l73.67.06a4.193,4.193,0,0,1,3.754,3.154,6.122,6.122,0,0,1,.13,1.628q-.006,3.184-.012,6c-.01,3.742-.019,6.967-.026,9.606q-.006.989-.012,1.866a4.118,4.118,0,0,1-2.1,3.477,3.842,3.842,0,0,1-1.5.487A3.39,3.39,0,0,1,287.964,311.232Z" transform="translate(-210.348 -284.932)" fill="#263238"/>
                </g>
              </g>
            </g>
            <g id="Group_17449" data-name="Group 17449" transform="translate(75.688 3.34)">
              <g id="Group_17447" data-name="Group 17447" transform="translate(0 0.008)">
                <path id="Path_20568" data-name="Path 20568" d="M338.924,292.833a.147.147,0,0,1-.1-.253l2.01-1.925a.147.147,0,1,1,.2.213l-2.01,1.925A.149.149,0,0,1,338.924,292.833Z" transform="translate(-338.777 -290.614)" fill="#263238"/>
              </g>
              <g id="Group_17448" data-name="Group 17448" transform="translate(0.01)">
                <path id="Path_20569" data-name="Path 20569" d="M340.931,292.836a.149.149,0,0,1-.1-.042l-1.989-1.941a.147.147,0,0,1,.206-.211l1.989,1.941a.147.147,0,0,1-.1.253Z" transform="translate(-338.795 -290.6)" fill="#263238"/>
              </g>
            </g>
            <g id="Group_17452" data-name="Group 17452" transform="translate(6.042 6.115)">
              <g id="Group_17450" data-name="Group 17450">
                <path id="Path_20570" data-name="Path 20570" d="M232.288,307.5l-.82-1.162a4.146,4.146,0,0,1-.76-2.393v-2.61a4.259,4.259,0,0,0-3.611-4.208v-1.246a.573.573,0,0,0-.573-.573h0a.574.574,0,0,0-.573.573v1.226a4.259,4.259,0,0,0-3.759,4.23v2.7a4.156,4.156,0,0,1-.885,2.564l-.7.9Z" transform="translate(-220.601 -295.309)" fill="#e0e0e0"/>
              </g>
              <g id="Group_17451" data-name="Group 17451" transform="translate(4.218 12.996)">
                <path id="Path_20571" data-name="Path 20571" d="M228.768,318.453a1.847,1.847,0,0,0,1.911-.328,1.8,1.8,0,0,0,.483-.741l-3.4-.024A1.849,1.849,0,0,0,228.768,318.453Z" transform="translate(-227.758 -317.36)" fill="#e0e0e0"/>
              </g>
            </g>
            <g id="Group_17454" data-name="Group 17454" transform="translate(22.803 8.834)">
              <g id="Group_17453" data-name="Group 17453">
                <path id="Path_20572" data-name="Path 20572" d="M289.848,300.075c0,.085-9.135.153-20.4.153s-20.4-.068-20.4-.153,9.134-.153,20.4-.153S289.848,299.99,289.848,300.075Z" transform="translate(-249.041 -299.922)" fill="#263238"/>
              </g>
            </g>
            <g id="Group_17456" data-name="Group 17456" transform="translate(22.803 13.772)">
              <g id="Group_17455" data-name="Group 17455">
                <path id="Path_20573" data-name="Path 20573" d="M299.464,308.454c0,.085-11.289.154-25.21.154s-25.213-.069-25.213-.154,11.286-.153,25.213-.153S299.464,308.369,299.464,308.454Z" transform="translate(-249.041 -308.301)" fill="#e0e0e0"/>
              </g>
            </g>
            <g id="Group_17458" data-name="Group 17458" transform="translate(22.803 16.729)">
              <g id="Group_17457" data-name="Group 17457">
                <path id="Path_20574" data-name="Path 20574" d="M299.464,313.472c0,.085-11.289.154-25.21.154s-25.213-.069-25.213-.154,11.286-.153,25.213-.153S299.464,313.388,299.464,313.472Z" transform="translate(-249.041 -313.319)" fill="#e0e0e0"/>
              </g>
            </g>
          </g>
        </g>
      </g>
    </g>
  </g>
</svg>
