<svg xmlns="http://www.w3.org/2000/svg" xmlns:xlink="http://www.w3.org/1999/xlink" width="96" height="96" viewBox="0 0 96 96">
  <defs>
    <radialGradient id="radial-gradient" cx="0.5" cy="0.824" r="0.648" gradientTransform="translate(1.571 0.324) rotate(90) scale(1 1.299)" gradientUnits="objectBoundingBox">
      <stop offset="0" stop-color="#6c9db4"/>
      <stop offset="1" stop-color="#72a2f2"/>
    </radialGradient>
  </defs>
  <g id="Group_18639" data-name="Group 18639" transform="translate(-229 -898)">
    <circle id="Ellipse_39" data-name="Ellipse 39" cx="48" cy="48" r="48" transform="translate(229 898)" fill="url(#radial-gradient)"/>
    <path id="no-running" d="M47.906,13.125a6.562,6.562,0,1,0-6.562-6.562A6.57,6.57,0,0,0,47.906,13.125Zm0-8.75a2.187,2.187,0,1,1-2.187,2.187A2.19,2.19,0,0,1,47.906,4.375ZM35.871,46.622l-7.656,8.641a2.188,2.188,0,0,1-3.275-2.9L32.6,43.721a2.188,2.188,0,1,1,3.275,2.9ZM24.537,36.743l-7.761,7.983a5.5,5.5,0,0,1-7.613.409l-8.4-7.159a2.187,2.187,0,1,1,2.839-3.329l8.406,7.168.024.021a1.1,1.1,0,0,0,1.531-.085c.016-.018,6.543-6.732,6.543-6.732a7.057,7.057,0,0,1-.851-4.055,2.188,2.188,0,0,1,4.355.414,2.93,2.93,0,0,0,.9,2.293,2.188,2.188,0,0,1,.022,3.072ZM34.6,31.51l6.3-7.093v3.363a5.475,5.475,0,0,0,5.469,5.469h7.437a2.187,2.187,0,1,0,0-4.375H46.375a1.1,1.1,0,0,1-1.094-1.094V20.787a6.564,6.564,0,0,0-2.231-4.93L32.266,6.382a5.469,5.469,0,0,0-7.641.413l-3.155,3.426a2.187,2.187,0,1,0,3.218,2.964l3.162-3.432a1.1,1.1,0,0,1,1.529-.084l3.986,3.5-8.153,8.947L3.734.64A2.187,2.187,0,1,0,.64,3.734L52.265,55.359a2.187,2.187,0,1,0,3.094-3.094Zm2.047-15.452,3.274,2.876-8.42,9.476-3.2-3.2Z" transform="translate(249 918)" fill="#fff"/>
  </g>
</svg>
