<svg xmlns="http://www.w3.org/2000/svg" width="181.739" height="170.414" viewBox="0 0 181.739 170.414">
  <g id="Group_22891" data-name="Group 22891" transform="translate(-629.131 -3158)">
    <g id="Group_15693" data-name="Group 15693" transform="translate(212.215 1840)" opacity="0.743">
      <circle id="Ellipse_123" data-name="Ellipse 123" cx="74.381" cy="74.381" r="74.381" transform="translate(433.918 1339.653)" fill="#cce2ff"/>
    </g>
    <g id="Group_15714" data-name="Group 15714" transform="translate(30.086 2374)">
      <g id="Group_15712" data-name="Group 15712" transform="translate(666.453 830.535)">
        <g id="Group_15671" data-name="Group 15671" transform="translate(5.688 6.921)" opacity="0.5" style="mix-blend-mode: multiply;isolation: isolate">
          <g id="Group_15670" data-name="Group 15670">
            <rect id="Rectangle_4042" data-name="Rectangle 4042" width="80.823" height="105.693" fill="#304982"/>
          </g>
        </g>
        <g id="Group_15673" data-name="Group 15673">
          <g id="Group_15672" data-name="Group 15672">
            <rect id="Rectangle_4043" data-name="Rectangle 4043" width="80.823" height="107.765" fill="#fff"/>
          </g>
        </g>
        <g id="Group_15675" data-name="Group 15675" transform="translate(60.217 36.694)">
          <g id="Group_15674" data-name="Group 15674">
            <path id="Path_18864" data-name="Path 18864" d="M1248.975,2213.4h-11.293a.793.793,0,0,1-.793-.792v-11.294a.793.793,0,0,1,.793-.792h11.293a.792.792,0,0,1,.793.792V2212.6A.792.792,0,0,1,1248.975,2213.4Zm-10.5-1.585h9.71V2202.1h-9.71Z" transform="translate(-1236.889 -2200.517)" fill="#304982"/>
          </g>
        </g>
        <g id="Group_15677" data-name="Group 15677" transform="translate(9.737 36.694)">
          <g id="Group_15676" data-name="Group 15676">
            <path id="Path_18865" data-name="Path 18865" d="M1215.725,2213.4h-11.3a.793.793,0,0,1-.792-.792v-11.294a.793.793,0,0,1,.792-.792h11.3a.792.792,0,0,1,.791.792V2212.6A.792.792,0,0,1,1215.725,2213.4Zm-10.5-1.585h9.71V2202.1h-9.71Z" transform="translate(-1203.638 -2200.517)" fill="#304982"/>
          </g>
        </g>
        <g id="Group_15679" data-name="Group 15679" transform="translate(34.978 36.694)">
          <g id="Group_15678" data-name="Group 15678">
            <path id="Path_18866" data-name="Path 18866" d="M1232.35,2213.4h-11.294a.791.791,0,0,1-.792-.792v-11.294a.791.791,0,0,1,.792-.792h11.294a.793.793,0,0,1,.792.792V2212.6A.793.793,0,0,1,1232.35,2213.4Zm-10.5-1.585h9.71V2202.1h-9.71Z" transform="translate(-1220.264 -2200.517)" fill="#304982"/>
          </g>
        </g>
        <g id="Group_15681" data-name="Group 15681" transform="translate(8.994 61.442)">
          <g id="Group_15680" data-name="Group 15680">
            <path id="Path_18867" data-name="Path 18867" d="M1237,2218.929h-32.8a1.056,1.056,0,1,1,0-2.112H1237a1.056,1.056,0,1,1,0,2.112Z" transform="translate(-1203.149 -2216.818)" fill="#304982"/>
          </g>
        </g>
        <g id="Group_15683" data-name="Group 15683" transform="translate(8.994 68.261)">
          <g id="Group_15682" data-name="Group 15682">
            <path id="Path_18868" data-name="Path 18868" d="M1241.789,2223.423h-37.583a1.057,1.057,0,1,1,0-2.113h37.583a1.057,1.057,0,0,1,0,2.113Z" transform="translate(-1203.149 -2221.31)" fill="#304982"/>
          </g>
        </g>
        <g id="Group_15685" data-name="Group 15685" transform="translate(8.994 80.416)">
          <g id="Group_15684" data-name="Group 15684">
            <path id="Path_18869" data-name="Path 18869" d="M1228.874,2231.427h-24.668a1.056,1.056,0,1,1,0-2.112h24.668a1.056,1.056,0,1,1,0,2.112Z" transform="translate(-1203.149 -2229.316)" fill="#304982"/>
          </g>
        </g>
        <g id="Group_15687" data-name="Group 15687" transform="translate(8.994 86.226)">
          <g id="Group_15686" data-name="Group 15686">
            <path id="Path_18870" data-name="Path 18870" d="M1239.322,2235.256h-35.116a1.056,1.056,0,1,1,0-2.113h35.116a1.056,1.056,0,1,1,0,2.113Z" transform="translate(-1203.149 -2233.143)" fill="#304982"/>
          </g>
        </g>
        <g id="Group_15689" data-name="Group 15689" transform="translate(8.994 92.036)">
          <g id="Group_15688" data-name="Group 15688">
            <path id="Path_18871" data-name="Path 18871" d="M1218.531,2239.083h-14.325a1.057,1.057,0,1,1,0-2.113h14.325a1.057,1.057,0,0,1,0,2.113Z" transform="translate(-1203.149 -2236.97)" fill="#304982"/>
          </g>
        </g>
        <text id="INVOICE" transform="translate(8.609 15.921)" fill="#304982" font-size="8" font-family="OpenSans-Bold, Open Sans" font-weight="700"><tspan x="0" y="0">INVOICE</tspan></text>
      </g>
      <g id="Group_15713" data-name="Group 15713" transform="translate(598.701 784)">
        <g id="Group_15658" data-name="Group 15658" transform="translate(0.344 0)">
          <path id="Path_18860" data-name="Path 18860" d="M1171.117,2233.755a.557.557,0,0,1-.254-.06c-1.4-.7-3.016-1.515-4.589-2.381a.568.568,0,0,1,.547-.995c1.555.856,3.164,1.667,4.55,2.36a.568.568,0,0,1-.254,1.076Zm-10.35-6.06a.566.566,0,0,1-.345-.117,26.091,26.091,0,0,1-3.854-3.566.568.568,0,0,1,.855-.747,24.955,24.955,0,0,0,3.688,3.411.567.567,0,0,1-.345,1.018Zm1.076-2.781a.567.567,0,0,1-.12-1.122,13.16,13.16,0,0,0,1.7-.492,11.8,11.8,0,0,0,2.772-1.465.568.568,0,1,1,.656.926,12.948,12.948,0,0,1-3.038,1.6,14.071,14.071,0,0,1-1.852.536A.616.616,0,0,1,1161.843,2224.914Zm-6.8-.13a.535.535,0,0,1-.132-.015,18.219,18.219,0,0,1-4.913-1.972.568.568,0,0,1,.57-.982,17.083,17.083,0,0,0,4.607,1.85.568.568,0,0,1-.132,1.119Zm-9.918-6.376a.565.565,0,0,1-.441-.211,23.015,23.015,0,0,1-2.813-4.449.568.568,0,0,1,1.021-.5,21.966,21.966,0,0,0,2.674,4.231.568.568,0,0,1-.44.925Zm8.441-.081a.567.567,0,0,1-.542-.4,15.419,15.419,0,0,1-.659-4.5c0-.259.006-.521.019-.78a.568.568,0,0,1,1.134.056c-.012.24-.018.484-.018.725a14.3,14.3,0,0,0,.61,4.168.566.566,0,0,1-.377.707A.557.557,0,0,1,1153.562,2218.326Zm17.317-.667a.558.558,0,0,1-.239-.053.567.567,0,0,1-.275-.754,10.774,10.774,0,0,0,1.047-4.565c0-.056,0-.112,0-.169a.568.568,0,0,1,.558-.578h.01a.568.568,0,0,1,.567.558c0,.063,0,.126,0,.189a11.881,11.881,0,0,1-1.152,5.043A.568.568,0,0,1,1170.879,2217.659Zm-30.666-10.086a.567.567,0,0,1-.555-.456,31.035,31.035,0,0,1-.591-5.2.568.568,0,1,1,1.135-.033,30.021,30.021,0,0,0,.568,5.014.567.567,0,0,1-.444.668A.6.6,0,0,1,1140.213,2207.573Zm14.714-.822a.568.568,0,0,1-.475-.877,9.335,9.335,0,0,1,4.07-3.542.568.568,0,0,1,.459,1.038,8.225,8.225,0,0,0-3.579,3.123A.567.567,0,0,1,1154.927,2206.751Zm14.623-.344a.567.567,0,0,1-.432-.2,10.266,10.266,0,0,0-3.906-2.842.567.567,0,1,1,.427-1.051,11.4,11.4,0,0,1,4.343,3.155.567.567,0,0,1-.431.936Zm-29.433-10.78a.564.564,0,0,1-.561-.657,48.828,48.828,0,0,1,1.108-5.085.568.568,0,0,1,1.1.3,47.677,47.677,0,0,0-1.083,4.967A.567.567,0,0,1,1140.117,2195.628Zm3.253-11.537a.569.569,0,0,1-.529-.772c.574-1.493,1.222-3.057,1.98-4.78a.568.568,0,0,1,1.039.458c-.751,1.706-1.392,3.253-1.96,4.729A.567.567,0,0,1,1143.37,2184.091Zm4.842-10.988a.568.568,0,0,1-.512-.811c.568-1.194,1.151-2.406,1.716-3.578l.513-1.065a.567.567,0,0,1,1.023.492l-.513,1.066c-.563,1.171-1.147,2.381-1.714,3.573A.568.568,0,0,1,1148.212,2173.1Zm5.161-10.846a.576.576,0,0,1-.237-.052.568.568,0,0,1-.279-.753c.122-.265.242-.528.359-.786q-.974.081-1.936.122a.568.568,0,0,1-.048-1.135c.832-.035,1.674-.093,2.518-.174.421-.947.811-1.847,1.178-2.719a.568.568,0,1,1,1.047.439c-.291.693-.6,1.4-.92,2.137.413-.051.827-.107,1.239-.168a.568.568,0,1,1,.167,1.123q-.971.144-1.943.25c-.2.451-.412.911-.629,1.385A.569.569,0,0,1,1153.373,2162.258Zm-8.969-1.7c-.021,0-.042,0-.064,0a41.7,41.7,0,0,1-5.136-.9.567.567,0,1,1,.267-1.1,40.54,40.54,0,0,0,5,.875.568.568,0,0,1-.063,1.132Zm18.675-1.718a.568.568,0,0,1-.156-1.113c1.617-.46,3.242-1.006,4.829-1.62a.567.567,0,1,1,.41,1.057c-1.619.628-3.277,1.185-4.927,1.655A.534.534,0,0,1,1163.079,2158.844Zm-30.231-1.371a.568.568,0,0,1-.232-.05,34.758,34.758,0,0,1-4.592-2.5.567.567,0,0,1,.616-.953,33.583,33.583,0,0,0,4.44,2.418.568.568,0,0,1-.232,1.086Zm41.344-3.126a.568.568,0,0,1-.267-1.069c1.425-.758,2.872-1.594,4.423-2.555a.567.567,0,0,1,.6.964c-1.573.975-3.04,1.823-4.488,2.593A.562.562,0,0,1,1174.191,2154.348Zm-16.281-3.206a.567.567,0,0,1-.537-.751c.572-1.667,1.073-3.31,1.49-4.883a.568.568,0,1,1,1.1.292c-.425,1.6-.934,3.267-1.514,4.959A.567.567,0,0,1,1157.911,2151.142Zm-34.948-.388a.564.564,0,0,1-.394-.159,36.3,36.3,0,0,1-3.493-3.884.567.567,0,0,1,.9-.7,35.208,35.208,0,0,0,3.385,3.762.567.567,0,0,1-.394.977Zm61.409-2.764a.567.567,0,0,1-.323-1.034c1.243-.861,2.5-1.749,3.72-2.609l.488-.344a.567.567,0,1,1,.655.927l-.488.344c-1.22.862-2.481,1.751-3.729,2.615A.561.561,0,0,1,1184.372,2147.99Zm-68.49-6.862a.569.569,0,0,1-.51-.317,31.855,31.855,0,0,1-1.926-4.866.568.568,0,1,1,1.087-.328,30.714,30.714,0,0,0,1.858,4.693.568.568,0,0,1-.258.76A.562.562,0,0,1,1115.881,2141.129Zm78.345,0a.567.567,0,0,1-.316-1.039c1.573-1.052,3-1.962,4.36-2.783a.567.567,0,1,1,.586.972c-1.346.813-2.757,1.713-4.315,2.755A.568.568,0,0,1,1194.226,2141.125Zm-33.434-1.62a.753.753,0,0,1-.081-.005.569.569,0,0,1-.482-.642c.049-.345.095-.695.137-1.039a36.833,36.833,0,0,0,.261-4.016.567.567,0,0,1,.567-.561h.006a.567.567,0,0,1,.562.573,38.016,38.016,0,0,1-.269,4.14c-.042.351-.089.708-.139,1.061A.567.567,0,0,1,1160.792,2139.505Zm43.814-4.394a.567.567,0,0,1-.238-1.083,49.62,49.62,0,0,1,4.833-1.935.568.568,0,0,1,.365,1.075,48.786,48.786,0,0,0-4.721,1.89A.573.573,0,0,1,1204.606,2135.111Zm28.146-1.423a.568.568,0,0,1-.26-.063,22.4,22.4,0,0,0-4.685-1.77.568.568,0,0,1,.282-1.1,23.53,23.53,0,0,1,4.923,1.86.567.567,0,0,1-.26,1.072Zm-16.724-2.168a.568.568,0,0,1-.09-1.129,34.2,34.2,0,0,1,5.21-.452.568.568,0,1,1,.007,1.135,32.982,32.982,0,0,0-5.035.438A.544.544,0,0,1,1216.029,2131.52Zm-103.226-1.911a.568.568,0,0,1-.566-.539c-.024-.46-.035-.926-.035-1.384,0-.852.041-1.712.121-2.555.042-.435.1-.875.164-1.31a.567.567,0,1,1,1.121.174c-.064.413-.116.831-.155,1.244-.078.808-.117,1.631-.117,2.448,0,.438.012.885.034,1.326a.568.568,0,0,1-.538.6Zm47.867-2.067a.567.567,0,0,1-.559-.475,38.873,38.873,0,0,0-1.145-4.939.567.567,0,1,1,1.085-.329,39.62,39.62,0,0,1,1.179,5.084.567.567,0,0,1-.468.652A.518.518,0,0,1,1160.669,2127.542Zm-45.612-9.6a.568.568,0,0,1-.514-.809,27.27,27.27,0,0,1,2.68-4.513.568.568,0,1,1,.916.67,26.066,26.066,0,0,0-2.568,4.325A.568.568,0,0,1,1115.057,2117.939Zm41.857-1.751a.567.567,0,0,1-.5-.3,29.719,29.719,0,0,0-2.723-4.245.568.568,0,0,1,.9-.695,30.876,30.876,0,0,1,2.829,4.409.567.567,0,0,1-.236.766A.557.557,0,0,1,1156.914,2116.188Zm-34.536-7.649a.567.567,0,0,1-.362-1,26.86,26.86,0,0,1,4.352-2.935.567.567,0,1,1,.539,1,25.749,25.749,0,0,0-4.168,2.811A.564.564,0,0,1,1122.378,2108.539Zm26.9-1.488a.563.563,0,0,1-.337-.112,20.986,20.986,0,0,0-4.336-2.481.567.567,0,1,1,.441-1.045,22.062,22.062,0,0,1,4.571,2.615.567.567,0,0,1-.338,1.024Zm-16.218-3.731a.568.568,0,0,1-.111-1.124,21.043,21.043,0,0,1,4.147-.418c.371,0,.746.01,1.114.03a.568.568,0,0,1-.063,1.134c-.348-.02-.7-.029-1.051-.029a19.89,19.89,0,0,0-3.923.4A.619.619,0,0,1,1133.058,2103.319Z" transform="translate(-1112.201 -2101.777)" fill="#ef8787"/>
        </g>
        <g id="Group_15664" data-name="Group 15664" transform="translate(134.344)">
          <g id="Group_15659" data-name="Group 15659" transform="translate(21.189)">
            <path id="Path_18861" data-name="Path 18861" d="M1288.253,2100.947l-9.444,30.673-1.513,4.915-4.314-3.641-11.277-9.514Z" transform="translate(-1261.704 -2100.947)" fill="#ef8787"/>
          </g>
          <g id="Group_15662" data-name="Group 15662">
            <g id="Group_15661" data-name="Group 15661">
              <g id="Group_15660" data-name="Group 15660">
                <path id="Path_18862" data-name="Path 18862" d="M1286.2,2100.947l-32.813,18.951-14.925-4.946Z" transform="translate(-1238.461 -2100.947)" fill="#dd595d"/>
              </g>
            </g>
          </g>
          <g id="Group_15663" data-name="Group 15663" transform="translate(14.925)">
            <path id="Path_18863" data-name="Path 18863" d="M1287.646,2100.947l-26.548,22.434-5.1,10.2-1.162-13.684Z" transform="translate(-1254.833 -2100.947)" fill="#d04549"/>
          </g>
        </g>
      </g>
    </g>
  </g>
</svg>
