<svg xmlns="http://www.w3.org/2000/svg" width="56" height="55.067" viewBox="0 0 56 55.067">
  <g id="list" transform="translate(0 -4)">
    <g id="Group_18357" data-name="Group 18357" transform="translate(0 4)">
      <g id="Group_18356" data-name="Group 18356" transform="translate(0 0)">
        <path id="Path_22928" data-name="Path 22928" d="M52.267,15.2H44.8V7.733A3.733,3.733,0,0,0,41.067,4H7.467A3.733,3.733,0,0,0,3.733,7.733v44.8H.933A.933.933,0,0,0,0,53.467v1.867a3.733,3.733,0,0,0,3.733,3.733H35.467A3.733,3.733,0,0,0,39.2,55.333V45.067h7.467A3.733,3.733,0,0,0,50.4,41.333v-8.4h4.667A.933.933,0,0,0,56,32V18.933A3.733,3.733,0,0,0,52.267,15.2ZM3.733,57.2a1.867,1.867,0,0,1-1.867-1.867V54.4H31.733v.933a3.705,3.705,0,0,0,.5,1.867Zm33.6-49.467v47.6a1.867,1.867,0,1,1-3.733,0V53.467a.933.933,0,0,0-.933-.933H5.6V7.733A1.867,1.867,0,0,1,7.467,5.867H37.852A3.7,3.7,0,0,0,37.333,7.733ZM39.2,43.2V7.733a1.867,1.867,0,0,1,3.733,0v33.6a3.7,3.7,0,0,0,.519,1.867Zm9.333-24.267v22.4a1.867,1.867,0,1,1-3.733,0V17.067h4.252A3.7,3.7,0,0,0,48.533,18.933Zm5.6,12.133H50.4V18.933a1.867,1.867,0,0,1,3.733,0Z" transform="translate(0 -4)" fill="#707070"/>
      </g>
    </g>
    <g id="Group_18359" data-name="Group 18359" transform="translate(9.333 29.2)">
      <g id="Group_18358" data-name="Group 18358">
        <rect id="Rectangle_4428" data-name="Rectangle 4428" width="21.467" height="1.867" fill="#707070"/>
      </g>
    </g>
    <g id="Group_18361" data-name="Group 18361" transform="translate(14.933 25.467)">
      <g id="Group_18360" data-name="Group 18360">
        <rect id="Rectangle_4429" data-name="Rectangle 4429" width="19.6" height="1.867" fill="#707070"/>
      </g>
    </g>
    <g id="Group_18363" data-name="Group 18363" transform="translate(18.667 9.6)">
      <g id="Group_18362" data-name="Group 18362">
        <path id="Path_22929" data-name="Path 22929" d="M165.479,58.808a2.654,2.654,0,0,0-1.352-1.588l-1.819-.91a.8.8,0,0,1,.356-1.51h.273a.8.8,0,0,1,.8.8v.136H165.6V55.6a2.659,2.659,0,0,0-1.867-2.528V52h-1.867v1.069a2.654,2.654,0,0,0-.394,4.911l1.819.91a.8.8,0,0,1-.356,1.51h-.273a.8.8,0,0,1-.8-.8v-.136H160V59.6a2.659,2.659,0,0,0,1.867,2.528V63.2h1.867V62.131A2.654,2.654,0,0,0,165.479,58.808Z" transform="translate(-159.999 -52)" fill="#707070"/>
      </g>
    </g>
    <g id="Group_18365" data-name="Group 18365" transform="translate(11.2 25.467)">
      <g id="Group_18364" data-name="Group 18364">
        <rect id="Rectangle_4430" data-name="Rectangle 4430" width="1.867" height="1.867" fill="#707070"/>
      </g>
    </g>
    <g id="Group_18367" data-name="Group 18367" transform="translate(9.333 37.6)">
      <g id="Group_18366" data-name="Group 18366">
        <rect id="Rectangle_4431" data-name="Rectangle 4431" width="21.467" height="1.867" fill="#707070"/>
      </g>
    </g>
    <g id="Group_18369" data-name="Group 18369" transform="translate(14.933 33.867)">
      <g id="Group_18368" data-name="Group 18368">
        <rect id="Rectangle_4432" data-name="Rectangle 4432" width="19.6" height="1.867" fill="#707070"/>
      </g>
    </g>
    <g id="Group_18371" data-name="Group 18371" transform="translate(11.2 33.867)">
      <g id="Group_18370" data-name="Group 18370">
        <rect id="Rectangle_4433" data-name="Rectangle 4433" width="1.867" height="1.867" fill="#707070"/>
      </g>
    </g>
    <g id="Group_18373" data-name="Group 18373" transform="translate(9.333 46)">
      <g id="Group_18372" data-name="Group 18372">
        <rect id="Rectangle_4434" data-name="Rectangle 4434" width="21.467" height="1.867" fill="#707070"/>
      </g>
    </g>
    <g id="Group_18375" data-name="Group 18375" transform="translate(14.933 42.267)">
      <g id="Group_18374" data-name="Group 18374">
        <rect id="Rectangle_4435" data-name="Rectangle 4435" width="19.6" height="1.867" fill="#707070"/>
      </g>
    </g>
    <g id="Group_18377" data-name="Group 18377" transform="translate(11.2 42.267)">
      <g id="Group_18376" data-name="Group 18376">
        <rect id="Rectangle_4436" data-name="Rectangle 4436" width="1.867" height="1.867" fill="#707070"/>
      </g>
    </g>
  </g>
</svg>
