<svg id="log-in_2_" data-name="log-in (2)" xmlns="http://www.w3.org/2000/svg" width="56" height="56" viewBox="0 0 56 56">
  <path id="Path_14827" data-name="Path 14827" d="M52.992,7.575H38.651A11.294,11.294,0,0,0,28,0a11.156,11.156,0,0,0-5.1,1.215.821.821,0,0,0,.743,1.463A9.531,9.531,0,0,1,28,1.641a9.634,9.634,0,1,1-7.319,3.37.821.821,0,0,0-1.246-1.068,11.257,11.257,0,0,0-2.082,3.632H3.008A3.011,3.011,0,0,0,0,10.583V52.992A3.011,3.011,0,0,0,3.008,56H52.992A3.011,3.011,0,0,0,56,52.992V10.583A3.011,3.011,0,0,0,52.992,7.575Zm0,1.641a1.369,1.369,0,0,1,1.367,1.367v6.1H37.893a11.313,11.313,0,0,0,1.193-7.464Zm-49.984,0H16.916a11.3,11.3,0,0,0,1.191,7.464H1.641v-6.1A1.369,1.369,0,0,1,3.008,9.216ZM52.992,54.359H3.008a1.369,1.369,0,0,1-1.367-1.367V18.32H19.2a11.261,11.261,0,0,0,17.6-.014c.048.009,17.552.014,17.552.014V52.992A1.369,1.369,0,0,1,52.992,54.359Z" fill="#707070"/>
  <path id="Path_14828" data-name="Path 14828" d="M94.561,362.293H59.743c-6.068,0-6.079,9.428,0,9.428H94.561C100.629,371.721,100.639,362.293,94.561,362.293Zm0,7.787H59.743c-3.954,0-3.982-6.146,0-6.146H94.561C98.515,363.934,98.542,370.08,94.561,370.08Z" transform="translate(-49.152 -322.667)" fill="#707070"/>
  <path id="Path_14829" data-name="Path 14829" d="M114.7,397.891a.821.821,0,0,0,0,1.641A.821.821,0,0,0,114.7,397.891Z" transform="translate(-101.448 -354.372)" fill="#707070"/>
  <path id="Path_14830" data-name="Path 14830" d="M153.226,397.891a.821.821,0,0,0,0,1.641A.821.821,0,0,0,153.226,397.891Z" transform="translate(-135.762 -354.372)" fill="#707070"/>
  <path id="Path_14831" data-name="Path 14831" d="M191.754,397.891a.821.821,0,0,0,0,1.641A.821.821,0,0,0,191.754,397.891Z" transform="translate(-170.076 -354.372)" fill="#707070"/>
  <path id="Path_14832" data-name="Path 14832" d="M230.283,397.891a.821.821,0,0,0,0,1.641A.821.821,0,0,0,230.283,397.891Z" transform="translate(-204.39 -354.372)" fill="#707070"/>
  <path id="Path_14833" data-name="Path 14833" d="M268.811,397.891a.821.821,0,0,0,0,1.641A.821.821,0,0,0,268.811,397.891Z" transform="translate(-238.704 -354.372)" fill="#707070"/>
  <path id="Path_14834" data-name="Path 14834" d="M307.34,397.891a.821.821,0,0,0,0,1.641A.821.821,0,0,0,307.34,397.891Z" transform="translate(-273.019 -354.372)" fill="#707070"/>
  <path id="Path_14835" data-name="Path 14835" d="M345.868,397.891a.821.821,0,0,0,0,1.641A.821.821,0,0,0,345.868,397.891Z" transform="translate(-307.333 -354.372)" fill="#707070"/>
  <path id="Path_14836" data-name="Path 14836" d="M384.4,397.891a.821.821,0,0,0,0,1.641A.821.821,0,0,0,384.4,397.891Z" transform="translate(-341.647 -354.372)" fill="#707070"/>
  <path id="Path_14837" data-name="Path 14837" d="M94.561,249.118H59.743c-6.068,0-6.079,9.428,0,9.428H87.356a.821.821,0,0,0,0-1.641H59.743c-3.954,0-3.982-6.146,0-6.146H94.561c3.954,0,3.982,6.146,0,6.146H91.731a.821.821,0,0,0,0,1.641h2.829C100.629,258.546,100.639,249.118,94.561,249.118Z" transform="translate(-49.152 -221.871)" fill="#707070"/>
  <path id="Path_14838" data-name="Path 14838" d="M218.3,42.1a2.92,2.92,0,0,0-2.917,2.917v1.935a1.917,1.917,0,0,0-1.713,1.9v4.233A1.916,1.916,0,0,0,215.583,55h5.432a1.916,1.916,0,0,0,1.914-1.914V48.857a1.917,1.917,0,0,0-1.713-1.9V45.019A2.92,2.92,0,0,0,218.3,42.1Zm-1.277,2.917a1.278,1.278,0,0,1,2.553,0v1.924h-2.553Zm4.266,8.072a.274.274,0,0,1-.273.273h-5.432a.274.274,0,0,1-.273-.273V48.857a.274.274,0,0,1,.273-.273h5.432a.274.274,0,0,1,.273.273Z" transform="translate(-190.299 -37.497)" fill="#707070"/>
  <path id="Path_14839" data-name="Path 14839" d="M144.991,285.536a.82.82,0,0,0-.82-.82h-29.5a.821.821,0,0,0,0,1.641h29.5A.82.82,0,0,0,144.991,285.536Z" transform="translate(-101.422 -253.575)" fill="#707070"/>
  <path id="Path_14840" data-name="Path 14840" d="M249.547,115.716a.821.821,0,0,0,0,1.641A.821.821,0,0,0,249.547,115.716Z" transform="translate(-221.547 -103.06)" fill="#707070"/>
</svg>
